%TF.GenerationSoftware,KiCad,Pcbnew,9.0.5*%
%TF.CreationDate,2025-11-13T00:09:03-05:00*%
%TF.ProjectId,SplitFlapDriverATtiny1616V2,53706c69-7446-46c6-9170-447269766572,rev?*%
%TF.SameCoordinates,Original*%
%TF.FileFunction,Legend,Top*%
%TF.FilePolarity,Positive*%
%FSLAX46Y46*%
G04 Gerber Fmt 4.6, Leading zero omitted, Abs format (unit mm)*
G04 Created by KiCad (PCBNEW 9.0.5) date 2025-11-13 00:09:03*
%MOMM*%
%LPD*%
G01*
G04 APERTURE LIST*
%ADD10C,0.100000*%
%ADD11C,0.150000*%
%ADD12C,0.120000*%
G04 APERTURE END LIST*
D10*
X123762475Y-132671115D02*
X122762475Y-132671115D01*
X122762475Y-132671115D02*
X122762475Y-132433020D01*
X122762475Y-132433020D02*
X122810094Y-132290163D01*
X122810094Y-132290163D02*
X122905332Y-132194925D01*
X122905332Y-132194925D02*
X123000570Y-132147306D01*
X123000570Y-132147306D02*
X123191046Y-132099687D01*
X123191046Y-132099687D02*
X123333903Y-132099687D01*
X123333903Y-132099687D02*
X123524379Y-132147306D01*
X123524379Y-132147306D02*
X123619617Y-132194925D01*
X123619617Y-132194925D02*
X123714856Y-132290163D01*
X123714856Y-132290163D02*
X123762475Y-132433020D01*
X123762475Y-132433020D02*
X123762475Y-132671115D01*
X123714856Y-131290163D02*
X123762475Y-131385401D01*
X123762475Y-131385401D02*
X123762475Y-131575877D01*
X123762475Y-131575877D02*
X123714856Y-131671115D01*
X123714856Y-131671115D02*
X123619617Y-131718734D01*
X123619617Y-131718734D02*
X123238665Y-131718734D01*
X123238665Y-131718734D02*
X123143427Y-131671115D01*
X123143427Y-131671115D02*
X123095808Y-131575877D01*
X123095808Y-131575877D02*
X123095808Y-131385401D01*
X123095808Y-131385401D02*
X123143427Y-131290163D01*
X123143427Y-131290163D02*
X123238665Y-131242544D01*
X123238665Y-131242544D02*
X123333903Y-131242544D01*
X123333903Y-131242544D02*
X123429141Y-131718734D01*
X123714856Y-130861591D02*
X123762475Y-130766353D01*
X123762475Y-130766353D02*
X123762475Y-130575877D01*
X123762475Y-130575877D02*
X123714856Y-130480639D01*
X123714856Y-130480639D02*
X123619617Y-130433020D01*
X123619617Y-130433020D02*
X123571998Y-130433020D01*
X123571998Y-130433020D02*
X123476760Y-130480639D01*
X123476760Y-130480639D02*
X123429141Y-130575877D01*
X123429141Y-130575877D02*
X123429141Y-130718734D01*
X123429141Y-130718734D02*
X123381522Y-130813972D01*
X123381522Y-130813972D02*
X123286284Y-130861591D01*
X123286284Y-130861591D02*
X123238665Y-130861591D01*
X123238665Y-130861591D02*
X123143427Y-130813972D01*
X123143427Y-130813972D02*
X123095808Y-130718734D01*
X123095808Y-130718734D02*
X123095808Y-130575877D01*
X123095808Y-130575877D02*
X123143427Y-130480639D01*
X123762475Y-130004448D02*
X123095808Y-130004448D01*
X122762475Y-130004448D02*
X122810094Y-130052067D01*
X122810094Y-130052067D02*
X122857713Y-130004448D01*
X122857713Y-130004448D02*
X122810094Y-129956829D01*
X122810094Y-129956829D02*
X122762475Y-130004448D01*
X122762475Y-130004448D02*
X122857713Y-130004448D01*
X123095808Y-129099687D02*
X123905332Y-129099687D01*
X123905332Y-129099687D02*
X124000570Y-129147306D01*
X124000570Y-129147306D02*
X124048189Y-129194925D01*
X124048189Y-129194925D02*
X124095808Y-129290163D01*
X124095808Y-129290163D02*
X124095808Y-129433020D01*
X124095808Y-129433020D02*
X124048189Y-129528258D01*
X123714856Y-129099687D02*
X123762475Y-129194925D01*
X123762475Y-129194925D02*
X123762475Y-129385401D01*
X123762475Y-129385401D02*
X123714856Y-129480639D01*
X123714856Y-129480639D02*
X123667236Y-129528258D01*
X123667236Y-129528258D02*
X123571998Y-129575877D01*
X123571998Y-129575877D02*
X123286284Y-129575877D01*
X123286284Y-129575877D02*
X123191046Y-129528258D01*
X123191046Y-129528258D02*
X123143427Y-129480639D01*
X123143427Y-129480639D02*
X123095808Y-129385401D01*
X123095808Y-129385401D02*
X123095808Y-129194925D01*
X123095808Y-129194925D02*
X123143427Y-129099687D01*
X123095808Y-128623496D02*
X123762475Y-128623496D01*
X123191046Y-128623496D02*
X123143427Y-128575877D01*
X123143427Y-128575877D02*
X123095808Y-128480639D01*
X123095808Y-128480639D02*
X123095808Y-128337782D01*
X123095808Y-128337782D02*
X123143427Y-128242544D01*
X123143427Y-128242544D02*
X123238665Y-128194925D01*
X123238665Y-128194925D02*
X123762475Y-128194925D01*
X123714856Y-127337782D02*
X123762475Y-127433020D01*
X123762475Y-127433020D02*
X123762475Y-127623496D01*
X123762475Y-127623496D02*
X123714856Y-127718734D01*
X123714856Y-127718734D02*
X123619617Y-127766353D01*
X123619617Y-127766353D02*
X123238665Y-127766353D01*
X123238665Y-127766353D02*
X123143427Y-127718734D01*
X123143427Y-127718734D02*
X123095808Y-127623496D01*
X123095808Y-127623496D02*
X123095808Y-127433020D01*
X123095808Y-127433020D02*
X123143427Y-127337782D01*
X123143427Y-127337782D02*
X123238665Y-127290163D01*
X123238665Y-127290163D02*
X123333903Y-127290163D01*
X123333903Y-127290163D02*
X123429141Y-127766353D01*
X123762475Y-126433020D02*
X122762475Y-126433020D01*
X123714856Y-126433020D02*
X123762475Y-126528258D01*
X123762475Y-126528258D02*
X123762475Y-126718734D01*
X123762475Y-126718734D02*
X123714856Y-126813972D01*
X123714856Y-126813972D02*
X123667236Y-126861591D01*
X123667236Y-126861591D02*
X123571998Y-126909210D01*
X123571998Y-126909210D02*
X123286284Y-126909210D01*
X123286284Y-126909210D02*
X123191046Y-126861591D01*
X123191046Y-126861591D02*
X123143427Y-126813972D01*
X123143427Y-126813972D02*
X123095808Y-126718734D01*
X123095808Y-126718734D02*
X123095808Y-126528258D01*
X123095808Y-126528258D02*
X123143427Y-126433020D01*
X123762475Y-125194924D02*
X122762475Y-125194924D01*
X123143427Y-125194924D02*
X123095808Y-125099686D01*
X123095808Y-125099686D02*
X123095808Y-124909210D01*
X123095808Y-124909210D02*
X123143427Y-124813972D01*
X123143427Y-124813972D02*
X123191046Y-124766353D01*
X123191046Y-124766353D02*
X123286284Y-124718734D01*
X123286284Y-124718734D02*
X123571998Y-124718734D01*
X123571998Y-124718734D02*
X123667236Y-124766353D01*
X123667236Y-124766353D02*
X123714856Y-124813972D01*
X123714856Y-124813972D02*
X123762475Y-124909210D01*
X123762475Y-124909210D02*
X123762475Y-125099686D01*
X123762475Y-125099686D02*
X123714856Y-125194924D01*
X123095808Y-124385400D02*
X123762475Y-124147305D01*
X123095808Y-123909210D02*
X123762475Y-124147305D01*
X123762475Y-124147305D02*
X124000570Y-124242543D01*
X124000570Y-124242543D02*
X124048189Y-124290162D01*
X124048189Y-124290162D02*
X124095808Y-124385400D01*
X123667236Y-123528257D02*
X123714856Y-123480638D01*
X123714856Y-123480638D02*
X123762475Y-123528257D01*
X123762475Y-123528257D02*
X123714856Y-123575876D01*
X123714856Y-123575876D02*
X123667236Y-123528257D01*
X123667236Y-123528257D02*
X123762475Y-123528257D01*
X123143427Y-123528257D02*
X123191046Y-123480638D01*
X123191046Y-123480638D02*
X123238665Y-123528257D01*
X123238665Y-123528257D02*
X123191046Y-123575876D01*
X123191046Y-123575876D02*
X123143427Y-123528257D01*
X123143427Y-123528257D02*
X123238665Y-123528257D01*
X125086704Y-132718734D02*
X125086704Y-132242544D01*
X125372419Y-132813972D02*
X124372419Y-132480639D01*
X124372419Y-132480639D02*
X125372419Y-132147306D01*
X125372419Y-131385401D02*
X124372419Y-131385401D01*
X125324800Y-131385401D02*
X125372419Y-131480639D01*
X125372419Y-131480639D02*
X125372419Y-131671115D01*
X125372419Y-131671115D02*
X125324800Y-131766353D01*
X125324800Y-131766353D02*
X125277180Y-131813972D01*
X125277180Y-131813972D02*
X125181942Y-131861591D01*
X125181942Y-131861591D02*
X124896228Y-131861591D01*
X124896228Y-131861591D02*
X124800990Y-131813972D01*
X124800990Y-131813972D02*
X124753371Y-131766353D01*
X124753371Y-131766353D02*
X124705752Y-131671115D01*
X124705752Y-131671115D02*
X124705752Y-131480639D01*
X124705752Y-131480639D02*
X124753371Y-131385401D01*
X125372419Y-130480639D02*
X124848609Y-130480639D01*
X124848609Y-130480639D02*
X124753371Y-130528258D01*
X124753371Y-130528258D02*
X124705752Y-130623496D01*
X124705752Y-130623496D02*
X124705752Y-130813972D01*
X124705752Y-130813972D02*
X124753371Y-130909210D01*
X125324800Y-130480639D02*
X125372419Y-130575877D01*
X125372419Y-130575877D02*
X125372419Y-130813972D01*
X125372419Y-130813972D02*
X125324800Y-130909210D01*
X125324800Y-130909210D02*
X125229561Y-130956829D01*
X125229561Y-130956829D02*
X125134323Y-130956829D01*
X125134323Y-130956829D02*
X125039085Y-130909210D01*
X125039085Y-130909210D02*
X124991466Y-130813972D01*
X124991466Y-130813972D02*
X124991466Y-130575877D01*
X124991466Y-130575877D02*
X124943847Y-130480639D01*
X125372419Y-130004448D02*
X124705752Y-130004448D01*
X124800990Y-130004448D02*
X124753371Y-129956829D01*
X124753371Y-129956829D02*
X124705752Y-129861591D01*
X124705752Y-129861591D02*
X124705752Y-129718734D01*
X124705752Y-129718734D02*
X124753371Y-129623496D01*
X124753371Y-129623496D02*
X124848609Y-129575877D01*
X124848609Y-129575877D02*
X125372419Y-129575877D01*
X124848609Y-129575877D02*
X124753371Y-129528258D01*
X124753371Y-129528258D02*
X124705752Y-129433020D01*
X124705752Y-129433020D02*
X124705752Y-129290163D01*
X124705752Y-129290163D02*
X124753371Y-129194924D01*
X124753371Y-129194924D02*
X124848609Y-129147305D01*
X124848609Y-129147305D02*
X125372419Y-129147305D01*
X124420038Y-128147306D02*
X124372419Y-128242544D01*
X124372419Y-128242544D02*
X124372419Y-128385401D01*
X124372419Y-128385401D02*
X124420038Y-128528258D01*
X124420038Y-128528258D02*
X124515276Y-128623496D01*
X124515276Y-128623496D02*
X124610514Y-128671115D01*
X124610514Y-128671115D02*
X124800990Y-128718734D01*
X124800990Y-128718734D02*
X124943847Y-128718734D01*
X124943847Y-128718734D02*
X125134323Y-128671115D01*
X125134323Y-128671115D02*
X125229561Y-128623496D01*
X125229561Y-128623496D02*
X125324800Y-128528258D01*
X125324800Y-128528258D02*
X125372419Y-128385401D01*
X125372419Y-128385401D02*
X125372419Y-128290163D01*
X125372419Y-128290163D02*
X125324800Y-128147306D01*
X125324800Y-128147306D02*
X125277180Y-128099687D01*
X125277180Y-128099687D02*
X124943847Y-128099687D01*
X124943847Y-128099687D02*
X124943847Y-128290163D01*
X125372419Y-127671115D02*
X124372419Y-127671115D01*
X124372419Y-127671115D02*
X125086704Y-127337782D01*
X125086704Y-127337782D02*
X124372419Y-127004449D01*
X124372419Y-127004449D02*
X125372419Y-127004449D01*
X125372419Y-126099687D02*
X124848609Y-126099687D01*
X124848609Y-126099687D02*
X124753371Y-126147306D01*
X124753371Y-126147306D02*
X124705752Y-126242544D01*
X124705752Y-126242544D02*
X124705752Y-126433020D01*
X124705752Y-126433020D02*
X124753371Y-126528258D01*
X125324800Y-126099687D02*
X125372419Y-126194925D01*
X125372419Y-126194925D02*
X125372419Y-126433020D01*
X125372419Y-126433020D02*
X125324800Y-126528258D01*
X125324800Y-126528258D02*
X125229561Y-126575877D01*
X125229561Y-126575877D02*
X125134323Y-126575877D01*
X125134323Y-126575877D02*
X125039085Y-126528258D01*
X125039085Y-126528258D02*
X124991466Y-126433020D01*
X124991466Y-126433020D02*
X124991466Y-126194925D01*
X124991466Y-126194925D02*
X124943847Y-126099687D01*
X125372419Y-125623496D02*
X124372419Y-125623496D01*
X124991466Y-125528258D02*
X125372419Y-125242544D01*
X124705752Y-125242544D02*
X125086704Y-125623496D01*
X125324800Y-124433020D02*
X125372419Y-124528258D01*
X125372419Y-124528258D02*
X125372419Y-124718734D01*
X125372419Y-124718734D02*
X125324800Y-124813972D01*
X125324800Y-124813972D02*
X125229561Y-124861591D01*
X125229561Y-124861591D02*
X124848609Y-124861591D01*
X124848609Y-124861591D02*
X124753371Y-124813972D01*
X124753371Y-124813972D02*
X124705752Y-124718734D01*
X124705752Y-124718734D02*
X124705752Y-124528258D01*
X124705752Y-124528258D02*
X124753371Y-124433020D01*
X124753371Y-124433020D02*
X124848609Y-124385401D01*
X124848609Y-124385401D02*
X124943847Y-124385401D01*
X124943847Y-124385401D02*
X125039085Y-124861591D01*
X125324800Y-124004448D02*
X125372419Y-123909210D01*
X125372419Y-123909210D02*
X125372419Y-123718734D01*
X125372419Y-123718734D02*
X125324800Y-123623496D01*
X125324800Y-123623496D02*
X125229561Y-123575877D01*
X125229561Y-123575877D02*
X125181942Y-123575877D01*
X125181942Y-123575877D02*
X125086704Y-123623496D01*
X125086704Y-123623496D02*
X125039085Y-123718734D01*
X125039085Y-123718734D02*
X125039085Y-123861591D01*
X125039085Y-123861591D02*
X124991466Y-123956829D01*
X124991466Y-123956829D02*
X124896228Y-124004448D01*
X124896228Y-124004448D02*
X124848609Y-124004448D01*
X124848609Y-124004448D02*
X124753371Y-123956829D01*
X124753371Y-123956829D02*
X124705752Y-123861591D01*
X124705752Y-123861591D02*
X124705752Y-123718734D01*
X124705752Y-123718734D02*
X124753371Y-123623496D01*
X125231265Y-138074800D02*
X125374122Y-138122419D01*
X125374122Y-138122419D02*
X125612217Y-138122419D01*
X125612217Y-138122419D02*
X125707455Y-138074800D01*
X125707455Y-138074800D02*
X125755074Y-138027180D01*
X125755074Y-138027180D02*
X125802693Y-137931942D01*
X125802693Y-137931942D02*
X125802693Y-137836704D01*
X125802693Y-137836704D02*
X125755074Y-137741466D01*
X125755074Y-137741466D02*
X125707455Y-137693847D01*
X125707455Y-137693847D02*
X125612217Y-137646228D01*
X125612217Y-137646228D02*
X125421741Y-137598609D01*
X125421741Y-137598609D02*
X125326503Y-137550990D01*
X125326503Y-137550990D02*
X125278884Y-137503371D01*
X125278884Y-137503371D02*
X125231265Y-137408133D01*
X125231265Y-137408133D02*
X125231265Y-137312895D01*
X125231265Y-137312895D02*
X125278884Y-137217657D01*
X125278884Y-137217657D02*
X125326503Y-137170038D01*
X125326503Y-137170038D02*
X125421741Y-137122419D01*
X125421741Y-137122419D02*
X125659836Y-137122419D01*
X125659836Y-137122419D02*
X125802693Y-137170038D01*
X126231265Y-137455752D02*
X126231265Y-138455752D01*
X126231265Y-137503371D02*
X126326503Y-137455752D01*
X126326503Y-137455752D02*
X126516979Y-137455752D01*
X126516979Y-137455752D02*
X126612217Y-137503371D01*
X126612217Y-137503371D02*
X126659836Y-137550990D01*
X126659836Y-137550990D02*
X126707455Y-137646228D01*
X126707455Y-137646228D02*
X126707455Y-137931942D01*
X126707455Y-137931942D02*
X126659836Y-138027180D01*
X126659836Y-138027180D02*
X126612217Y-138074800D01*
X126612217Y-138074800D02*
X126516979Y-138122419D01*
X126516979Y-138122419D02*
X126326503Y-138122419D01*
X126326503Y-138122419D02*
X126231265Y-138074800D01*
X127278884Y-138122419D02*
X127183646Y-138074800D01*
X127183646Y-138074800D02*
X127136027Y-137979561D01*
X127136027Y-137979561D02*
X127136027Y-137122419D01*
X127659837Y-138122419D02*
X127659837Y-137455752D01*
X127659837Y-137122419D02*
X127612218Y-137170038D01*
X127612218Y-137170038D02*
X127659837Y-137217657D01*
X127659837Y-137217657D02*
X127707456Y-137170038D01*
X127707456Y-137170038D02*
X127659837Y-137122419D01*
X127659837Y-137122419D02*
X127659837Y-137217657D01*
X127993170Y-137455752D02*
X128374122Y-137455752D01*
X128136027Y-137122419D02*
X128136027Y-137979561D01*
X128136027Y-137979561D02*
X128183646Y-138074800D01*
X128183646Y-138074800D02*
X128278884Y-138122419D01*
X128278884Y-138122419D02*
X128374122Y-138122419D01*
X129802694Y-137598609D02*
X129469361Y-137598609D01*
X129469361Y-138122419D02*
X129469361Y-137122419D01*
X129469361Y-137122419D02*
X129945551Y-137122419D01*
X130469361Y-138122419D02*
X130374123Y-138074800D01*
X130374123Y-138074800D02*
X130326504Y-137979561D01*
X130326504Y-137979561D02*
X130326504Y-137122419D01*
X131278885Y-138122419D02*
X131278885Y-137598609D01*
X131278885Y-137598609D02*
X131231266Y-137503371D01*
X131231266Y-137503371D02*
X131136028Y-137455752D01*
X131136028Y-137455752D02*
X130945552Y-137455752D01*
X130945552Y-137455752D02*
X130850314Y-137503371D01*
X131278885Y-138074800D02*
X131183647Y-138122419D01*
X131183647Y-138122419D02*
X130945552Y-138122419D01*
X130945552Y-138122419D02*
X130850314Y-138074800D01*
X130850314Y-138074800D02*
X130802695Y-137979561D01*
X130802695Y-137979561D02*
X130802695Y-137884323D01*
X130802695Y-137884323D02*
X130850314Y-137789085D01*
X130850314Y-137789085D02*
X130945552Y-137741466D01*
X130945552Y-137741466D02*
X131183647Y-137741466D01*
X131183647Y-137741466D02*
X131278885Y-137693847D01*
X131755076Y-137455752D02*
X131755076Y-138455752D01*
X131755076Y-137503371D02*
X131850314Y-137455752D01*
X131850314Y-137455752D02*
X132040790Y-137455752D01*
X132040790Y-137455752D02*
X132136028Y-137503371D01*
X132136028Y-137503371D02*
X132183647Y-137550990D01*
X132183647Y-137550990D02*
X132231266Y-137646228D01*
X132231266Y-137646228D02*
X132231266Y-137931942D01*
X132231266Y-137931942D02*
X132183647Y-138027180D01*
X132183647Y-138027180D02*
X132136028Y-138074800D01*
X132136028Y-138074800D02*
X132040790Y-138122419D01*
X132040790Y-138122419D02*
X131850314Y-138122419D01*
X131850314Y-138122419D02*
X131755076Y-138074800D01*
X133421743Y-138122419D02*
X133421743Y-137122419D01*
X133421743Y-137122419D02*
X133659838Y-137122419D01*
X133659838Y-137122419D02*
X133802695Y-137170038D01*
X133802695Y-137170038D02*
X133897933Y-137265276D01*
X133897933Y-137265276D02*
X133945552Y-137360514D01*
X133945552Y-137360514D02*
X133993171Y-137550990D01*
X133993171Y-137550990D02*
X133993171Y-137693847D01*
X133993171Y-137693847D02*
X133945552Y-137884323D01*
X133945552Y-137884323D02*
X133897933Y-137979561D01*
X133897933Y-137979561D02*
X133802695Y-138074800D01*
X133802695Y-138074800D02*
X133659838Y-138122419D01*
X133659838Y-138122419D02*
X133421743Y-138122419D01*
X134421743Y-138122419D02*
X134421743Y-137455752D01*
X134421743Y-137646228D02*
X134469362Y-137550990D01*
X134469362Y-137550990D02*
X134516981Y-137503371D01*
X134516981Y-137503371D02*
X134612219Y-137455752D01*
X134612219Y-137455752D02*
X134707457Y-137455752D01*
X135040791Y-138122419D02*
X135040791Y-137455752D01*
X135040791Y-137122419D02*
X134993172Y-137170038D01*
X134993172Y-137170038D02*
X135040791Y-137217657D01*
X135040791Y-137217657D02*
X135088410Y-137170038D01*
X135088410Y-137170038D02*
X135040791Y-137122419D01*
X135040791Y-137122419D02*
X135040791Y-137217657D01*
X135421743Y-137455752D02*
X135659838Y-138122419D01*
X135659838Y-138122419D02*
X135897933Y-137455752D01*
X136659838Y-138074800D02*
X136564600Y-138122419D01*
X136564600Y-138122419D02*
X136374124Y-138122419D01*
X136374124Y-138122419D02*
X136278886Y-138074800D01*
X136278886Y-138074800D02*
X136231267Y-137979561D01*
X136231267Y-137979561D02*
X136231267Y-137598609D01*
X136231267Y-137598609D02*
X136278886Y-137503371D01*
X136278886Y-137503371D02*
X136374124Y-137455752D01*
X136374124Y-137455752D02*
X136564600Y-137455752D01*
X136564600Y-137455752D02*
X136659838Y-137503371D01*
X136659838Y-137503371D02*
X136707457Y-137598609D01*
X136707457Y-137598609D02*
X136707457Y-137693847D01*
X136707457Y-137693847D02*
X136231267Y-137789085D01*
X137136029Y-138122419D02*
X137136029Y-137455752D01*
X137136029Y-137646228D02*
X137183648Y-137550990D01*
X137183648Y-137550990D02*
X137231267Y-137503371D01*
X137231267Y-137503371D02*
X137326505Y-137455752D01*
X137326505Y-137455752D02*
X137421743Y-137455752D01*
X138850315Y-137598609D02*
X138993172Y-137646228D01*
X138993172Y-137646228D02*
X139040791Y-137693847D01*
X139040791Y-137693847D02*
X139088410Y-137789085D01*
X139088410Y-137789085D02*
X139088410Y-137931942D01*
X139088410Y-137931942D02*
X139040791Y-138027180D01*
X139040791Y-138027180D02*
X138993172Y-138074800D01*
X138993172Y-138074800D02*
X138897934Y-138122419D01*
X138897934Y-138122419D02*
X138516982Y-138122419D01*
X138516982Y-138122419D02*
X138516982Y-137122419D01*
X138516982Y-137122419D02*
X138850315Y-137122419D01*
X138850315Y-137122419D02*
X138945553Y-137170038D01*
X138945553Y-137170038D02*
X138993172Y-137217657D01*
X138993172Y-137217657D02*
X139040791Y-137312895D01*
X139040791Y-137312895D02*
X139040791Y-137408133D01*
X139040791Y-137408133D02*
X138993172Y-137503371D01*
X138993172Y-137503371D02*
X138945553Y-137550990D01*
X138945553Y-137550990D02*
X138850315Y-137598609D01*
X138850315Y-137598609D02*
X138516982Y-137598609D01*
X139659839Y-138122419D02*
X139564601Y-138074800D01*
X139564601Y-138074800D02*
X139516982Y-138027180D01*
X139516982Y-138027180D02*
X139469363Y-137931942D01*
X139469363Y-137931942D02*
X139469363Y-137646228D01*
X139469363Y-137646228D02*
X139516982Y-137550990D01*
X139516982Y-137550990D02*
X139564601Y-137503371D01*
X139564601Y-137503371D02*
X139659839Y-137455752D01*
X139659839Y-137455752D02*
X139802696Y-137455752D01*
X139802696Y-137455752D02*
X139897934Y-137503371D01*
X139897934Y-137503371D02*
X139945553Y-137550990D01*
X139945553Y-137550990D02*
X139993172Y-137646228D01*
X139993172Y-137646228D02*
X139993172Y-137931942D01*
X139993172Y-137931942D02*
X139945553Y-138027180D01*
X139945553Y-138027180D02*
X139897934Y-138074800D01*
X139897934Y-138074800D02*
X139802696Y-138122419D01*
X139802696Y-138122419D02*
X139659839Y-138122419D01*
X140850315Y-138122419D02*
X140850315Y-137598609D01*
X140850315Y-137598609D02*
X140802696Y-137503371D01*
X140802696Y-137503371D02*
X140707458Y-137455752D01*
X140707458Y-137455752D02*
X140516982Y-137455752D01*
X140516982Y-137455752D02*
X140421744Y-137503371D01*
X140850315Y-138074800D02*
X140755077Y-138122419D01*
X140755077Y-138122419D02*
X140516982Y-138122419D01*
X140516982Y-138122419D02*
X140421744Y-138074800D01*
X140421744Y-138074800D02*
X140374125Y-137979561D01*
X140374125Y-137979561D02*
X140374125Y-137884323D01*
X140374125Y-137884323D02*
X140421744Y-137789085D01*
X140421744Y-137789085D02*
X140516982Y-137741466D01*
X140516982Y-137741466D02*
X140755077Y-137741466D01*
X140755077Y-137741466D02*
X140850315Y-137693847D01*
X141326506Y-138122419D02*
X141326506Y-137455752D01*
X141326506Y-137646228D02*
X141374125Y-137550990D01*
X141374125Y-137550990D02*
X141421744Y-137503371D01*
X141421744Y-137503371D02*
X141516982Y-137455752D01*
X141516982Y-137455752D02*
X141612220Y-137455752D01*
X142374125Y-138122419D02*
X142374125Y-137122419D01*
X142374125Y-138074800D02*
X142278887Y-138122419D01*
X142278887Y-138122419D02*
X142088411Y-138122419D01*
X142088411Y-138122419D02*
X141993173Y-138074800D01*
X141993173Y-138074800D02*
X141945554Y-138027180D01*
X141945554Y-138027180D02*
X141897935Y-137931942D01*
X141897935Y-137931942D02*
X141897935Y-137646228D01*
X141897935Y-137646228D02*
X141945554Y-137550990D01*
X141945554Y-137550990D02*
X141993173Y-137503371D01*
X141993173Y-137503371D02*
X142088411Y-137455752D01*
X142088411Y-137455752D02*
X142278887Y-137455752D01*
X142278887Y-137455752D02*
X142374125Y-137503371D01*
X143469364Y-137122419D02*
X143802697Y-138122419D01*
X143802697Y-138122419D02*
X144136030Y-137122419D01*
X144993173Y-138122419D02*
X144421745Y-138122419D01*
X144707459Y-138122419D02*
X144707459Y-137122419D01*
X144707459Y-137122419D02*
X144612221Y-137265276D01*
X144612221Y-137265276D02*
X144516983Y-137360514D01*
X144516983Y-137360514D02*
X144421745Y-137408133D01*
X130903884Y-134347419D02*
X130903884Y-133347419D01*
X130903884Y-133347419D02*
X131237217Y-134061704D01*
X131237217Y-134061704D02*
X131570550Y-133347419D01*
X131570550Y-133347419D02*
X131570550Y-134347419D01*
X132189598Y-134347419D02*
X132094360Y-134299800D01*
X132094360Y-134299800D02*
X132046741Y-134252180D01*
X132046741Y-134252180D02*
X131999122Y-134156942D01*
X131999122Y-134156942D02*
X131999122Y-133871228D01*
X131999122Y-133871228D02*
X132046741Y-133775990D01*
X132046741Y-133775990D02*
X132094360Y-133728371D01*
X132094360Y-133728371D02*
X132189598Y-133680752D01*
X132189598Y-133680752D02*
X132332455Y-133680752D01*
X132332455Y-133680752D02*
X132427693Y-133728371D01*
X132427693Y-133728371D02*
X132475312Y-133775990D01*
X132475312Y-133775990D02*
X132522931Y-133871228D01*
X132522931Y-133871228D02*
X132522931Y-134156942D01*
X132522931Y-134156942D02*
X132475312Y-134252180D01*
X132475312Y-134252180D02*
X132427693Y-134299800D01*
X132427693Y-134299800D02*
X132332455Y-134347419D01*
X132332455Y-134347419D02*
X132189598Y-134347419D01*
X132808646Y-133680752D02*
X133189598Y-133680752D01*
X132951503Y-133347419D02*
X132951503Y-134204561D01*
X132951503Y-134204561D02*
X132999122Y-134299800D01*
X132999122Y-134299800D02*
X133094360Y-134347419D01*
X133094360Y-134347419D02*
X133189598Y-134347419D01*
X133665789Y-134347419D02*
X133570551Y-134299800D01*
X133570551Y-134299800D02*
X133522932Y-134252180D01*
X133522932Y-134252180D02*
X133475313Y-134156942D01*
X133475313Y-134156942D02*
X133475313Y-133871228D01*
X133475313Y-133871228D02*
X133522932Y-133775990D01*
X133522932Y-133775990D02*
X133570551Y-133728371D01*
X133570551Y-133728371D02*
X133665789Y-133680752D01*
X133665789Y-133680752D02*
X133808646Y-133680752D01*
X133808646Y-133680752D02*
X133903884Y-133728371D01*
X133903884Y-133728371D02*
X133951503Y-133775990D01*
X133951503Y-133775990D02*
X133999122Y-133871228D01*
X133999122Y-133871228D02*
X133999122Y-134156942D01*
X133999122Y-134156942D02*
X133951503Y-134252180D01*
X133951503Y-134252180D02*
X133903884Y-134299800D01*
X133903884Y-134299800D02*
X133808646Y-134347419D01*
X133808646Y-134347419D02*
X133665789Y-134347419D01*
X134427694Y-134347419D02*
X134427694Y-133680752D01*
X134427694Y-133871228D02*
X134475313Y-133775990D01*
X134475313Y-133775990D02*
X134522932Y-133728371D01*
X134522932Y-133728371D02*
X134618170Y-133680752D01*
X134618170Y-133680752D02*
X134713408Y-133680752D01*
X136094361Y-133347419D02*
X136094361Y-134061704D01*
X136094361Y-134061704D02*
X136046742Y-134204561D01*
X136046742Y-134204561D02*
X135951504Y-134299800D01*
X135951504Y-134299800D02*
X135808647Y-134347419D01*
X135808647Y-134347419D02*
X135713409Y-134347419D01*
X136522933Y-134299800D02*
X136665790Y-134347419D01*
X136665790Y-134347419D02*
X136903885Y-134347419D01*
X136903885Y-134347419D02*
X136999123Y-134299800D01*
X136999123Y-134299800D02*
X137046742Y-134252180D01*
X137046742Y-134252180D02*
X137094361Y-134156942D01*
X137094361Y-134156942D02*
X137094361Y-134061704D01*
X137094361Y-134061704D02*
X137046742Y-133966466D01*
X137046742Y-133966466D02*
X136999123Y-133918847D01*
X136999123Y-133918847D02*
X136903885Y-133871228D01*
X136903885Y-133871228D02*
X136713409Y-133823609D01*
X136713409Y-133823609D02*
X136618171Y-133775990D01*
X136618171Y-133775990D02*
X136570552Y-133728371D01*
X136570552Y-133728371D02*
X136522933Y-133633133D01*
X136522933Y-133633133D02*
X136522933Y-133537895D01*
X136522933Y-133537895D02*
X136570552Y-133442657D01*
X136570552Y-133442657D02*
X136618171Y-133395038D01*
X136618171Y-133395038D02*
X136713409Y-133347419D01*
X136713409Y-133347419D02*
X136951504Y-133347419D01*
X136951504Y-133347419D02*
X137094361Y-133395038D01*
X137380076Y-133347419D02*
X137951504Y-133347419D01*
X137665790Y-134347419D02*
X137665790Y-133347419D01*
X138284838Y-133966466D02*
X139046743Y-133966466D01*
X139427695Y-133347419D02*
X140094361Y-134347419D01*
X140094361Y-133347419D02*
X139427695Y-134347419D01*
X140475314Y-134347419D02*
X140475314Y-133347419D01*
X140475314Y-133823609D02*
X141046742Y-133823609D01*
X141046742Y-134347419D02*
X141046742Y-133347419D01*
X125150312Y-121566466D02*
X126140789Y-121566466D01*
X125645550Y-121947419D02*
X125645550Y-121185514D01*
X126574122Y-120947419D02*
X127007455Y-121947419D01*
X127007455Y-121947419D02*
X127440789Y-120947419D01*
X129545551Y-120995038D02*
X129421741Y-120947419D01*
X129421741Y-120947419D02*
X129236027Y-120947419D01*
X129236027Y-120947419D02*
X129050313Y-120995038D01*
X129050313Y-120995038D02*
X128926503Y-121090276D01*
X128926503Y-121090276D02*
X128864598Y-121185514D01*
X128864598Y-121185514D02*
X128802694Y-121375990D01*
X128802694Y-121375990D02*
X128802694Y-121518847D01*
X128802694Y-121518847D02*
X128864598Y-121709323D01*
X128864598Y-121709323D02*
X128926503Y-121804561D01*
X128926503Y-121804561D02*
X129050313Y-121899800D01*
X129050313Y-121899800D02*
X129236027Y-121947419D01*
X129236027Y-121947419D02*
X129359836Y-121947419D01*
X129359836Y-121947419D02*
X129545551Y-121899800D01*
X129545551Y-121899800D02*
X129607455Y-121852180D01*
X129607455Y-121852180D02*
X129607455Y-121518847D01*
X129607455Y-121518847D02*
X129359836Y-121518847D01*
X131155074Y-121947419D02*
X131155074Y-120947419D01*
X131774122Y-121947419D02*
X131774122Y-120947419D01*
X131774122Y-120947419D02*
X132516979Y-121947419D01*
X132516979Y-121947419D02*
X132516979Y-120947419D01*
X125103884Y-117497419D02*
X125103884Y-116497419D01*
X125103884Y-116973609D02*
X125675312Y-116973609D01*
X125675312Y-117497419D02*
X125675312Y-116497419D01*
X126580074Y-117497419D02*
X126580074Y-116973609D01*
X126580074Y-116973609D02*
X126532455Y-116878371D01*
X126532455Y-116878371D02*
X126437217Y-116830752D01*
X126437217Y-116830752D02*
X126246741Y-116830752D01*
X126246741Y-116830752D02*
X126151503Y-116878371D01*
X126580074Y-117449800D02*
X126484836Y-117497419D01*
X126484836Y-117497419D02*
X126246741Y-117497419D01*
X126246741Y-117497419D02*
X126151503Y-117449800D01*
X126151503Y-117449800D02*
X126103884Y-117354561D01*
X126103884Y-117354561D02*
X126103884Y-117259323D01*
X126103884Y-117259323D02*
X126151503Y-117164085D01*
X126151503Y-117164085D02*
X126246741Y-117116466D01*
X126246741Y-117116466D02*
X126484836Y-117116466D01*
X126484836Y-117116466D02*
X126580074Y-117068847D01*
X127199122Y-117497419D02*
X127103884Y-117449800D01*
X127103884Y-117449800D02*
X127056265Y-117354561D01*
X127056265Y-117354561D02*
X127056265Y-116497419D01*
X127722932Y-117497419D02*
X127627694Y-117449800D01*
X127627694Y-117449800D02*
X127580075Y-117354561D01*
X127580075Y-117354561D02*
X127580075Y-116497419D01*
X128818171Y-117449800D02*
X128961028Y-117497419D01*
X128961028Y-117497419D02*
X129199123Y-117497419D01*
X129199123Y-117497419D02*
X129294361Y-117449800D01*
X129294361Y-117449800D02*
X129341980Y-117402180D01*
X129341980Y-117402180D02*
X129389599Y-117306942D01*
X129389599Y-117306942D02*
X129389599Y-117211704D01*
X129389599Y-117211704D02*
X129341980Y-117116466D01*
X129341980Y-117116466D02*
X129294361Y-117068847D01*
X129294361Y-117068847D02*
X129199123Y-117021228D01*
X129199123Y-117021228D02*
X129008647Y-116973609D01*
X129008647Y-116973609D02*
X128913409Y-116925990D01*
X128913409Y-116925990D02*
X128865790Y-116878371D01*
X128865790Y-116878371D02*
X128818171Y-116783133D01*
X128818171Y-116783133D02*
X128818171Y-116687895D01*
X128818171Y-116687895D02*
X128865790Y-116592657D01*
X128865790Y-116592657D02*
X128913409Y-116545038D01*
X128913409Y-116545038D02*
X129008647Y-116497419D01*
X129008647Y-116497419D02*
X129246742Y-116497419D01*
X129246742Y-116497419D02*
X129389599Y-116545038D01*
X130199123Y-117449800D02*
X130103885Y-117497419D01*
X130103885Y-117497419D02*
X129913409Y-117497419D01*
X129913409Y-117497419D02*
X129818171Y-117449800D01*
X129818171Y-117449800D02*
X129770552Y-117354561D01*
X129770552Y-117354561D02*
X129770552Y-116973609D01*
X129770552Y-116973609D02*
X129818171Y-116878371D01*
X129818171Y-116878371D02*
X129913409Y-116830752D01*
X129913409Y-116830752D02*
X130103885Y-116830752D01*
X130103885Y-116830752D02*
X130199123Y-116878371D01*
X130199123Y-116878371D02*
X130246742Y-116973609D01*
X130246742Y-116973609D02*
X130246742Y-117068847D01*
X130246742Y-117068847D02*
X129770552Y-117164085D01*
X130675314Y-116830752D02*
X130675314Y-117497419D01*
X130675314Y-116925990D02*
X130722933Y-116878371D01*
X130722933Y-116878371D02*
X130818171Y-116830752D01*
X130818171Y-116830752D02*
X130961028Y-116830752D01*
X130961028Y-116830752D02*
X131056266Y-116878371D01*
X131056266Y-116878371D02*
X131103885Y-116973609D01*
X131103885Y-116973609D02*
X131103885Y-117497419D01*
X131532457Y-117449800D02*
X131627695Y-117497419D01*
X131627695Y-117497419D02*
X131818171Y-117497419D01*
X131818171Y-117497419D02*
X131913409Y-117449800D01*
X131913409Y-117449800D02*
X131961028Y-117354561D01*
X131961028Y-117354561D02*
X131961028Y-117306942D01*
X131961028Y-117306942D02*
X131913409Y-117211704D01*
X131913409Y-117211704D02*
X131818171Y-117164085D01*
X131818171Y-117164085D02*
X131675314Y-117164085D01*
X131675314Y-117164085D02*
X131580076Y-117116466D01*
X131580076Y-117116466D02*
X131532457Y-117021228D01*
X131532457Y-117021228D02*
X131532457Y-116973609D01*
X131532457Y-116973609D02*
X131580076Y-116878371D01*
X131580076Y-116878371D02*
X131675314Y-116830752D01*
X131675314Y-116830752D02*
X131818171Y-116830752D01*
X131818171Y-116830752D02*
X131913409Y-116878371D01*
X132532457Y-117497419D02*
X132437219Y-117449800D01*
X132437219Y-117449800D02*
X132389600Y-117402180D01*
X132389600Y-117402180D02*
X132341981Y-117306942D01*
X132341981Y-117306942D02*
X132341981Y-117021228D01*
X132341981Y-117021228D02*
X132389600Y-116925990D01*
X132389600Y-116925990D02*
X132437219Y-116878371D01*
X132437219Y-116878371D02*
X132532457Y-116830752D01*
X132532457Y-116830752D02*
X132675314Y-116830752D01*
X132675314Y-116830752D02*
X132770552Y-116878371D01*
X132770552Y-116878371D02*
X132818171Y-116925990D01*
X132818171Y-116925990D02*
X132865790Y-117021228D01*
X132865790Y-117021228D02*
X132865790Y-117306942D01*
X132865790Y-117306942D02*
X132818171Y-117402180D01*
X132818171Y-117402180D02*
X132770552Y-117449800D01*
X132770552Y-117449800D02*
X132675314Y-117497419D01*
X132675314Y-117497419D02*
X132532457Y-117497419D01*
X133294362Y-117497419D02*
X133294362Y-116830752D01*
X133294362Y-117021228D02*
X133341981Y-116925990D01*
X133341981Y-116925990D02*
X133389600Y-116878371D01*
X133389600Y-116878371D02*
X133484838Y-116830752D01*
X133484838Y-116830752D02*
X133580076Y-116830752D01*
X122505074Y-102896260D02*
X122028884Y-102896260D01*
X122028884Y-102896260D02*
X121981265Y-103658165D01*
X121981265Y-103658165D02*
X122028884Y-103581974D01*
X122028884Y-103581974D02*
X122124122Y-103505784D01*
X122124122Y-103505784D02*
X122362217Y-103505784D01*
X122362217Y-103505784D02*
X122457455Y-103581974D01*
X122457455Y-103581974D02*
X122505074Y-103658165D01*
X122505074Y-103658165D02*
X122552693Y-103810546D01*
X122552693Y-103810546D02*
X122552693Y-104191498D01*
X122552693Y-104191498D02*
X122505074Y-104343879D01*
X122505074Y-104343879D02*
X122457455Y-104420070D01*
X122457455Y-104420070D02*
X122362217Y-104496260D01*
X122362217Y-104496260D02*
X122124122Y-104496260D01*
X122124122Y-104496260D02*
X122028884Y-104420070D01*
X122028884Y-104420070D02*
X121981265Y-104343879D01*
X122838408Y-102896260D02*
X123171741Y-104496260D01*
X123171741Y-104496260D02*
X123505074Y-102896260D01*
X123314598Y-105548360D02*
X123219360Y-105472170D01*
X123219360Y-105472170D02*
X123076503Y-105472170D01*
X123076503Y-105472170D02*
X122933646Y-105548360D01*
X122933646Y-105548360D02*
X122838408Y-105700741D01*
X122838408Y-105700741D02*
X122790789Y-105853122D01*
X122790789Y-105853122D02*
X122743170Y-106157884D01*
X122743170Y-106157884D02*
X122743170Y-106386456D01*
X122743170Y-106386456D02*
X122790789Y-106691218D01*
X122790789Y-106691218D02*
X122838408Y-106843599D01*
X122838408Y-106843599D02*
X122933646Y-106995980D01*
X122933646Y-106995980D02*
X123076503Y-107072170D01*
X123076503Y-107072170D02*
X123171741Y-107072170D01*
X123171741Y-107072170D02*
X123314598Y-106995980D01*
X123314598Y-106995980D02*
X123362217Y-106919789D01*
X123362217Y-106919789D02*
X123362217Y-106386456D01*
X123362217Y-106386456D02*
X123171741Y-106386456D01*
X123124122Y-108809985D02*
X123266979Y-108886175D01*
X123266979Y-108886175D02*
X123314598Y-108962366D01*
X123314598Y-108962366D02*
X123362217Y-109114747D01*
X123362217Y-109114747D02*
X123362217Y-109343318D01*
X123362217Y-109343318D02*
X123314598Y-109495699D01*
X123314598Y-109495699D02*
X123266979Y-109571890D01*
X123266979Y-109571890D02*
X123171741Y-109648080D01*
X123171741Y-109648080D02*
X122790789Y-109648080D01*
X122790789Y-109648080D02*
X122790789Y-108048080D01*
X122790789Y-108048080D02*
X123124122Y-108048080D01*
X123124122Y-108048080D02*
X123219360Y-108124270D01*
X123219360Y-108124270D02*
X123266979Y-108200461D01*
X123266979Y-108200461D02*
X123314598Y-108352842D01*
X123314598Y-108352842D02*
X123314598Y-108505223D01*
X123314598Y-108505223D02*
X123266979Y-108657604D01*
X123266979Y-108657604D02*
X123219360Y-108733794D01*
X123219360Y-108733794D02*
X123124122Y-108809985D01*
X123124122Y-108809985D02*
X122790789Y-108809985D01*
X122743170Y-111766847D02*
X123219360Y-111766847D01*
X122647932Y-112223990D02*
X122981265Y-110623990D01*
X122981265Y-110623990D02*
X123314598Y-112223990D01*
X130178884Y-85961466D02*
X130940789Y-85961466D01*
X130559836Y-86342419D02*
X130559836Y-85580514D01*
X131321741Y-85342419D02*
X131940788Y-85342419D01*
X131940788Y-85342419D02*
X131607455Y-85723371D01*
X131607455Y-85723371D02*
X131750312Y-85723371D01*
X131750312Y-85723371D02*
X131845550Y-85770990D01*
X131845550Y-85770990D02*
X131893169Y-85818609D01*
X131893169Y-85818609D02*
X131940788Y-85913847D01*
X131940788Y-85913847D02*
X131940788Y-86151942D01*
X131940788Y-86151942D02*
X131893169Y-86247180D01*
X131893169Y-86247180D02*
X131845550Y-86294800D01*
X131845550Y-86294800D02*
X131750312Y-86342419D01*
X131750312Y-86342419D02*
X131464598Y-86342419D01*
X131464598Y-86342419D02*
X131369360Y-86294800D01*
X131369360Y-86294800D02*
X131321741Y-86247180D01*
X132226503Y-85342419D02*
X132559836Y-86342419D01*
X132559836Y-86342419D02*
X132893169Y-85342419D01*
X133131265Y-85342419D02*
X133750312Y-85342419D01*
X133750312Y-85342419D02*
X133416979Y-85723371D01*
X133416979Y-85723371D02*
X133559836Y-85723371D01*
X133559836Y-85723371D02*
X133655074Y-85770990D01*
X133655074Y-85770990D02*
X133702693Y-85818609D01*
X133702693Y-85818609D02*
X133750312Y-85913847D01*
X133750312Y-85913847D02*
X133750312Y-86151942D01*
X133750312Y-86151942D02*
X133702693Y-86247180D01*
X133702693Y-86247180D02*
X133655074Y-86294800D01*
X133655074Y-86294800D02*
X133559836Y-86342419D01*
X133559836Y-86342419D02*
X133274122Y-86342419D01*
X133274122Y-86342419D02*
X133178884Y-86294800D01*
X133178884Y-86294800D02*
X133131265Y-86247180D01*
X135464598Y-85390038D02*
X135369360Y-85342419D01*
X135369360Y-85342419D02*
X135226503Y-85342419D01*
X135226503Y-85342419D02*
X135083646Y-85390038D01*
X135083646Y-85390038D02*
X134988408Y-85485276D01*
X134988408Y-85485276D02*
X134940789Y-85580514D01*
X134940789Y-85580514D02*
X134893170Y-85770990D01*
X134893170Y-85770990D02*
X134893170Y-85913847D01*
X134893170Y-85913847D02*
X134940789Y-86104323D01*
X134940789Y-86104323D02*
X134988408Y-86199561D01*
X134988408Y-86199561D02*
X135083646Y-86294800D01*
X135083646Y-86294800D02*
X135226503Y-86342419D01*
X135226503Y-86342419D02*
X135321741Y-86342419D01*
X135321741Y-86342419D02*
X135464598Y-86294800D01*
X135464598Y-86294800D02*
X135512217Y-86247180D01*
X135512217Y-86247180D02*
X135512217Y-85913847D01*
X135512217Y-85913847D02*
X135321741Y-85913847D01*
X136702694Y-85342419D02*
X136702694Y-86151942D01*
X136702694Y-86151942D02*
X136750313Y-86247180D01*
X136750313Y-86247180D02*
X136797932Y-86294800D01*
X136797932Y-86294800D02*
X136893170Y-86342419D01*
X136893170Y-86342419D02*
X137083646Y-86342419D01*
X137083646Y-86342419D02*
X137178884Y-86294800D01*
X137178884Y-86294800D02*
X137226503Y-86247180D01*
X137226503Y-86247180D02*
X137274122Y-86151942D01*
X137274122Y-86151942D02*
X137274122Y-85342419D01*
X137750313Y-86342419D02*
X137750313Y-85342419D01*
X137750313Y-85342419D02*
X138131265Y-85342419D01*
X138131265Y-85342419D02*
X138226503Y-85390038D01*
X138226503Y-85390038D02*
X138274122Y-85437657D01*
X138274122Y-85437657D02*
X138321741Y-85532895D01*
X138321741Y-85532895D02*
X138321741Y-85675752D01*
X138321741Y-85675752D02*
X138274122Y-85770990D01*
X138274122Y-85770990D02*
X138226503Y-85818609D01*
X138226503Y-85818609D02*
X138131265Y-85866228D01*
X138131265Y-85866228D02*
X137750313Y-85866228D01*
X138750313Y-86342419D02*
X138750313Y-85342419D01*
X138750313Y-85342419D02*
X138988408Y-85342419D01*
X138988408Y-85342419D02*
X139131265Y-85390038D01*
X139131265Y-85390038D02*
X139226503Y-85485276D01*
X139226503Y-85485276D02*
X139274122Y-85580514D01*
X139274122Y-85580514D02*
X139321741Y-85770990D01*
X139321741Y-85770990D02*
X139321741Y-85913847D01*
X139321741Y-85913847D02*
X139274122Y-86104323D01*
X139274122Y-86104323D02*
X139226503Y-86199561D01*
X139226503Y-86199561D02*
X139131265Y-86294800D01*
X139131265Y-86294800D02*
X138988408Y-86342419D01*
X138988408Y-86342419D02*
X138750313Y-86342419D01*
X139750313Y-86342419D02*
X139750313Y-85342419D01*
X130528884Y-83597419D02*
X130528884Y-84406942D01*
X130528884Y-84406942D02*
X130576503Y-84502180D01*
X130576503Y-84502180D02*
X130624122Y-84549800D01*
X130624122Y-84549800D02*
X130719360Y-84597419D01*
X130719360Y-84597419D02*
X130909836Y-84597419D01*
X130909836Y-84597419D02*
X131005074Y-84549800D01*
X131005074Y-84549800D02*
X131052693Y-84502180D01*
X131052693Y-84502180D02*
X131100312Y-84406942D01*
X131100312Y-84406942D02*
X131100312Y-83597419D01*
X131576503Y-84597419D02*
X131576503Y-83597419D01*
X131576503Y-83597419D02*
X131957455Y-83597419D01*
X131957455Y-83597419D02*
X132052693Y-83645038D01*
X132052693Y-83645038D02*
X132100312Y-83692657D01*
X132100312Y-83692657D02*
X132147931Y-83787895D01*
X132147931Y-83787895D02*
X132147931Y-83930752D01*
X132147931Y-83930752D02*
X132100312Y-84025990D01*
X132100312Y-84025990D02*
X132052693Y-84073609D01*
X132052693Y-84073609D02*
X131957455Y-84121228D01*
X131957455Y-84121228D02*
X131576503Y-84121228D01*
X132576503Y-84597419D02*
X132576503Y-83597419D01*
X132576503Y-83597419D02*
X132814598Y-83597419D01*
X132814598Y-83597419D02*
X132957455Y-83645038D01*
X132957455Y-83645038D02*
X133052693Y-83740276D01*
X133052693Y-83740276D02*
X133100312Y-83835514D01*
X133100312Y-83835514D02*
X133147931Y-84025990D01*
X133147931Y-84025990D02*
X133147931Y-84168847D01*
X133147931Y-84168847D02*
X133100312Y-84359323D01*
X133100312Y-84359323D02*
X133052693Y-84454561D01*
X133052693Y-84454561D02*
X132957455Y-84549800D01*
X132957455Y-84549800D02*
X132814598Y-84597419D01*
X132814598Y-84597419D02*
X132576503Y-84597419D01*
X133576503Y-84597419D02*
X133576503Y-83597419D01*
X134814598Y-84597419D02*
X134814598Y-83597419D01*
X135290788Y-83930752D02*
X135290788Y-84597419D01*
X135290788Y-84025990D02*
X135338407Y-83978371D01*
X135338407Y-83978371D02*
X135433645Y-83930752D01*
X135433645Y-83930752D02*
X135576502Y-83930752D01*
X135576502Y-83930752D02*
X135671740Y-83978371D01*
X135671740Y-83978371D02*
X135719359Y-84073609D01*
X135719359Y-84073609D02*
X135719359Y-84597419D01*
X136052693Y-83930752D02*
X136433645Y-83930752D01*
X136195550Y-83597419D02*
X136195550Y-84454561D01*
X136195550Y-84454561D02*
X136243169Y-84549800D01*
X136243169Y-84549800D02*
X136338407Y-84597419D01*
X136338407Y-84597419D02*
X136433645Y-84597419D01*
X137147931Y-84549800D02*
X137052693Y-84597419D01*
X137052693Y-84597419D02*
X136862217Y-84597419D01*
X136862217Y-84597419D02*
X136766979Y-84549800D01*
X136766979Y-84549800D02*
X136719360Y-84454561D01*
X136719360Y-84454561D02*
X136719360Y-84073609D01*
X136719360Y-84073609D02*
X136766979Y-83978371D01*
X136766979Y-83978371D02*
X136862217Y-83930752D01*
X136862217Y-83930752D02*
X137052693Y-83930752D01*
X137052693Y-83930752D02*
X137147931Y-83978371D01*
X137147931Y-83978371D02*
X137195550Y-84073609D01*
X137195550Y-84073609D02*
X137195550Y-84168847D01*
X137195550Y-84168847D02*
X136719360Y-84264085D01*
X137624122Y-84597419D02*
X137624122Y-83930752D01*
X137624122Y-84121228D02*
X137671741Y-84025990D01*
X137671741Y-84025990D02*
X137719360Y-83978371D01*
X137719360Y-83978371D02*
X137814598Y-83930752D01*
X137814598Y-83930752D02*
X137909836Y-83930752D01*
X138100313Y-83930752D02*
X138481265Y-83930752D01*
X138243170Y-84597419D02*
X138243170Y-83740276D01*
X138243170Y-83740276D02*
X138290789Y-83645038D01*
X138290789Y-83645038D02*
X138386027Y-83597419D01*
X138386027Y-83597419D02*
X138481265Y-83597419D01*
X139243170Y-84597419D02*
X139243170Y-84073609D01*
X139243170Y-84073609D02*
X139195551Y-83978371D01*
X139195551Y-83978371D02*
X139100313Y-83930752D01*
X139100313Y-83930752D02*
X138909837Y-83930752D01*
X138909837Y-83930752D02*
X138814599Y-83978371D01*
X139243170Y-84549800D02*
X139147932Y-84597419D01*
X139147932Y-84597419D02*
X138909837Y-84597419D01*
X138909837Y-84597419D02*
X138814599Y-84549800D01*
X138814599Y-84549800D02*
X138766980Y-84454561D01*
X138766980Y-84454561D02*
X138766980Y-84359323D01*
X138766980Y-84359323D02*
X138814599Y-84264085D01*
X138814599Y-84264085D02*
X138909837Y-84216466D01*
X138909837Y-84216466D02*
X139147932Y-84216466D01*
X139147932Y-84216466D02*
X139243170Y-84168847D01*
X140147932Y-84549800D02*
X140052694Y-84597419D01*
X140052694Y-84597419D02*
X139862218Y-84597419D01*
X139862218Y-84597419D02*
X139766980Y-84549800D01*
X139766980Y-84549800D02*
X139719361Y-84502180D01*
X139719361Y-84502180D02*
X139671742Y-84406942D01*
X139671742Y-84406942D02*
X139671742Y-84121228D01*
X139671742Y-84121228D02*
X139719361Y-84025990D01*
X139719361Y-84025990D02*
X139766980Y-83978371D01*
X139766980Y-83978371D02*
X139862218Y-83930752D01*
X139862218Y-83930752D02*
X140052694Y-83930752D01*
X140052694Y-83930752D02*
X140147932Y-83978371D01*
X140957456Y-84549800D02*
X140862218Y-84597419D01*
X140862218Y-84597419D02*
X140671742Y-84597419D01*
X140671742Y-84597419D02*
X140576504Y-84549800D01*
X140576504Y-84549800D02*
X140528885Y-84454561D01*
X140528885Y-84454561D02*
X140528885Y-84073609D01*
X140528885Y-84073609D02*
X140576504Y-83978371D01*
X140576504Y-83978371D02*
X140671742Y-83930752D01*
X140671742Y-83930752D02*
X140862218Y-83930752D01*
X140862218Y-83930752D02*
X140957456Y-83978371D01*
X140957456Y-83978371D02*
X141005075Y-84073609D01*
X141005075Y-84073609D02*
X141005075Y-84168847D01*
X141005075Y-84168847D02*
X140528885Y-84264085D01*
X146978884Y-89444440D02*
X146978884Y-87844440D01*
X147645550Y-87844440D02*
X147836026Y-87844440D01*
X147836026Y-87844440D02*
X147931264Y-87920630D01*
X147931264Y-87920630D02*
X148026502Y-88073011D01*
X148026502Y-88073011D02*
X148074121Y-88377773D01*
X148074121Y-88377773D02*
X148074121Y-88911107D01*
X148074121Y-88911107D02*
X148026502Y-89215869D01*
X148026502Y-89215869D02*
X147931264Y-89368250D01*
X147931264Y-89368250D02*
X147836026Y-89444440D01*
X147836026Y-89444440D02*
X147645550Y-89444440D01*
X147645550Y-89444440D02*
X147550312Y-89368250D01*
X147550312Y-89368250D02*
X147455074Y-89215869D01*
X147455074Y-89215869D02*
X147407455Y-88911107D01*
X147407455Y-88911107D02*
X147407455Y-88377773D01*
X147407455Y-88377773D02*
X147455074Y-88073011D01*
X147455074Y-88073011D02*
X147550312Y-87920630D01*
X147550312Y-87920630D02*
X147645550Y-87844440D01*
X149026502Y-89444440D02*
X148455074Y-89444440D01*
X148740788Y-89444440D02*
X148740788Y-87844440D01*
X148740788Y-87844440D02*
X148645550Y-88073011D01*
X148645550Y-88073011D02*
X148550312Y-88225392D01*
X148550312Y-88225392D02*
X148455074Y-88301583D01*
X146978884Y-92020350D02*
X146978884Y-90420350D01*
X147645550Y-90420350D02*
X147836026Y-90420350D01*
X147836026Y-90420350D02*
X147931264Y-90496540D01*
X147931264Y-90496540D02*
X148026502Y-90648921D01*
X148026502Y-90648921D02*
X148074121Y-90953683D01*
X148074121Y-90953683D02*
X148074121Y-91487017D01*
X148074121Y-91487017D02*
X148026502Y-91791779D01*
X148026502Y-91791779D02*
X147931264Y-91944160D01*
X147931264Y-91944160D02*
X147836026Y-92020350D01*
X147836026Y-92020350D02*
X147645550Y-92020350D01*
X147645550Y-92020350D02*
X147550312Y-91944160D01*
X147550312Y-91944160D02*
X147455074Y-91791779D01*
X147455074Y-91791779D02*
X147407455Y-91487017D01*
X147407455Y-91487017D02*
X147407455Y-90953683D01*
X147407455Y-90953683D02*
X147455074Y-90648921D01*
X147455074Y-90648921D02*
X147550312Y-90496540D01*
X147550312Y-90496540D02*
X147645550Y-90420350D01*
X148455074Y-90572731D02*
X148502693Y-90496540D01*
X148502693Y-90496540D02*
X148597931Y-90420350D01*
X148597931Y-90420350D02*
X148836026Y-90420350D01*
X148836026Y-90420350D02*
X148931264Y-90496540D01*
X148931264Y-90496540D02*
X148978883Y-90572731D01*
X148978883Y-90572731D02*
X149026502Y-90725112D01*
X149026502Y-90725112D02*
X149026502Y-90877493D01*
X149026502Y-90877493D02*
X148978883Y-91106064D01*
X148978883Y-91106064D02*
X148407455Y-92020350D01*
X148407455Y-92020350D02*
X149026502Y-92020350D01*
X146978884Y-94596260D02*
X146978884Y-92996260D01*
X147645550Y-92996260D02*
X147836026Y-92996260D01*
X147836026Y-92996260D02*
X147931264Y-93072450D01*
X147931264Y-93072450D02*
X148026502Y-93224831D01*
X148026502Y-93224831D02*
X148074121Y-93529593D01*
X148074121Y-93529593D02*
X148074121Y-94062927D01*
X148074121Y-94062927D02*
X148026502Y-94367689D01*
X148026502Y-94367689D02*
X147931264Y-94520070D01*
X147931264Y-94520070D02*
X147836026Y-94596260D01*
X147836026Y-94596260D02*
X147645550Y-94596260D01*
X147645550Y-94596260D02*
X147550312Y-94520070D01*
X147550312Y-94520070D02*
X147455074Y-94367689D01*
X147455074Y-94367689D02*
X147407455Y-94062927D01*
X147407455Y-94062927D02*
X147407455Y-93529593D01*
X147407455Y-93529593D02*
X147455074Y-93224831D01*
X147455074Y-93224831D02*
X147550312Y-93072450D01*
X147550312Y-93072450D02*
X147645550Y-92996260D01*
X148407455Y-92996260D02*
X149026502Y-92996260D01*
X149026502Y-92996260D02*
X148693169Y-93605784D01*
X148693169Y-93605784D02*
X148836026Y-93605784D01*
X148836026Y-93605784D02*
X148931264Y-93681974D01*
X148931264Y-93681974D02*
X148978883Y-93758165D01*
X148978883Y-93758165D02*
X149026502Y-93910546D01*
X149026502Y-93910546D02*
X149026502Y-94291498D01*
X149026502Y-94291498D02*
X148978883Y-94443879D01*
X148978883Y-94443879D02*
X148931264Y-94520070D01*
X148931264Y-94520070D02*
X148836026Y-94596260D01*
X148836026Y-94596260D02*
X148550312Y-94596260D01*
X148550312Y-94596260D02*
X148455074Y-94520070D01*
X148455074Y-94520070D02*
X148407455Y-94443879D01*
X146978884Y-97172170D02*
X146978884Y-95572170D01*
X147645550Y-95572170D02*
X147836026Y-95572170D01*
X147836026Y-95572170D02*
X147931264Y-95648360D01*
X147931264Y-95648360D02*
X148026502Y-95800741D01*
X148026502Y-95800741D02*
X148074121Y-96105503D01*
X148074121Y-96105503D02*
X148074121Y-96638837D01*
X148074121Y-96638837D02*
X148026502Y-96943599D01*
X148026502Y-96943599D02*
X147931264Y-97095980D01*
X147931264Y-97095980D02*
X147836026Y-97172170D01*
X147836026Y-97172170D02*
X147645550Y-97172170D01*
X147645550Y-97172170D02*
X147550312Y-97095980D01*
X147550312Y-97095980D02*
X147455074Y-96943599D01*
X147455074Y-96943599D02*
X147407455Y-96638837D01*
X147407455Y-96638837D02*
X147407455Y-96105503D01*
X147407455Y-96105503D02*
X147455074Y-95800741D01*
X147455074Y-95800741D02*
X147550312Y-95648360D01*
X147550312Y-95648360D02*
X147645550Y-95572170D01*
X148931264Y-96105503D02*
X148931264Y-97172170D01*
X148693169Y-95495980D02*
X148455074Y-96638837D01*
X148455074Y-96638837D02*
X149074121Y-96638837D01*
X146978884Y-99748080D02*
X146978884Y-98148080D01*
X147645550Y-98148080D02*
X147836026Y-98148080D01*
X147836026Y-98148080D02*
X147931264Y-98224270D01*
X147931264Y-98224270D02*
X148026502Y-98376651D01*
X148026502Y-98376651D02*
X148074121Y-98681413D01*
X148074121Y-98681413D02*
X148074121Y-99214747D01*
X148074121Y-99214747D02*
X148026502Y-99519509D01*
X148026502Y-99519509D02*
X147931264Y-99671890D01*
X147931264Y-99671890D02*
X147836026Y-99748080D01*
X147836026Y-99748080D02*
X147645550Y-99748080D01*
X147645550Y-99748080D02*
X147550312Y-99671890D01*
X147550312Y-99671890D02*
X147455074Y-99519509D01*
X147455074Y-99519509D02*
X147407455Y-99214747D01*
X147407455Y-99214747D02*
X147407455Y-98681413D01*
X147407455Y-98681413D02*
X147455074Y-98376651D01*
X147455074Y-98376651D02*
X147550312Y-98224270D01*
X147550312Y-98224270D02*
X147645550Y-98148080D01*
X148978883Y-98148080D02*
X148502693Y-98148080D01*
X148502693Y-98148080D02*
X148455074Y-98909985D01*
X148455074Y-98909985D02*
X148502693Y-98833794D01*
X148502693Y-98833794D02*
X148597931Y-98757604D01*
X148597931Y-98757604D02*
X148836026Y-98757604D01*
X148836026Y-98757604D02*
X148931264Y-98833794D01*
X148931264Y-98833794D02*
X148978883Y-98909985D01*
X148978883Y-98909985D02*
X149026502Y-99062366D01*
X149026502Y-99062366D02*
X149026502Y-99443318D01*
X149026502Y-99443318D02*
X148978883Y-99595699D01*
X148978883Y-99595699D02*
X148931264Y-99671890D01*
X148931264Y-99671890D02*
X148836026Y-99748080D01*
X148836026Y-99748080D02*
X148597931Y-99748080D01*
X148597931Y-99748080D02*
X148502693Y-99671890D01*
X148502693Y-99671890D02*
X148455074Y-99595699D01*
X146978884Y-102323990D02*
X146978884Y-100723990D01*
X147645550Y-100723990D02*
X147836026Y-100723990D01*
X147836026Y-100723990D02*
X147931264Y-100800180D01*
X147931264Y-100800180D02*
X148026502Y-100952561D01*
X148026502Y-100952561D02*
X148074121Y-101257323D01*
X148074121Y-101257323D02*
X148074121Y-101790657D01*
X148074121Y-101790657D02*
X148026502Y-102095419D01*
X148026502Y-102095419D02*
X147931264Y-102247800D01*
X147931264Y-102247800D02*
X147836026Y-102323990D01*
X147836026Y-102323990D02*
X147645550Y-102323990D01*
X147645550Y-102323990D02*
X147550312Y-102247800D01*
X147550312Y-102247800D02*
X147455074Y-102095419D01*
X147455074Y-102095419D02*
X147407455Y-101790657D01*
X147407455Y-101790657D02*
X147407455Y-101257323D01*
X147407455Y-101257323D02*
X147455074Y-100952561D01*
X147455074Y-100952561D02*
X147550312Y-100800180D01*
X147550312Y-100800180D02*
X147645550Y-100723990D01*
X148931264Y-100723990D02*
X148740788Y-100723990D01*
X148740788Y-100723990D02*
X148645550Y-100800180D01*
X148645550Y-100800180D02*
X148597931Y-100876371D01*
X148597931Y-100876371D02*
X148502693Y-101104942D01*
X148502693Y-101104942D02*
X148455074Y-101409704D01*
X148455074Y-101409704D02*
X148455074Y-102019228D01*
X148455074Y-102019228D02*
X148502693Y-102171609D01*
X148502693Y-102171609D02*
X148550312Y-102247800D01*
X148550312Y-102247800D02*
X148645550Y-102323990D01*
X148645550Y-102323990D02*
X148836026Y-102323990D01*
X148836026Y-102323990D02*
X148931264Y-102247800D01*
X148931264Y-102247800D02*
X148978883Y-102171609D01*
X148978883Y-102171609D02*
X149026502Y-102019228D01*
X149026502Y-102019228D02*
X149026502Y-101638276D01*
X149026502Y-101638276D02*
X148978883Y-101485895D01*
X148978883Y-101485895D02*
X148931264Y-101409704D01*
X148931264Y-101409704D02*
X148836026Y-101333514D01*
X148836026Y-101333514D02*
X148645550Y-101333514D01*
X148645550Y-101333514D02*
X148550312Y-101409704D01*
X148550312Y-101409704D02*
X148502693Y-101485895D01*
X148502693Y-101485895D02*
X148455074Y-101638276D01*
D11*
X140854819Y-95561904D02*
X141664342Y-95561904D01*
X141664342Y-95561904D02*
X141759580Y-95514285D01*
X141759580Y-95514285D02*
X141807200Y-95466666D01*
X141807200Y-95466666D02*
X141854819Y-95371428D01*
X141854819Y-95371428D02*
X141854819Y-95180952D01*
X141854819Y-95180952D02*
X141807200Y-95085714D01*
X141807200Y-95085714D02*
X141759580Y-95038095D01*
X141759580Y-95038095D02*
X141664342Y-94990476D01*
X141664342Y-94990476D02*
X140854819Y-94990476D01*
X141854819Y-93990476D02*
X141854819Y-94561904D01*
X141854819Y-94276190D02*
X140854819Y-94276190D01*
X140854819Y-94276190D02*
X140997676Y-94371428D01*
X140997676Y-94371428D02*
X141092914Y-94466666D01*
X141092914Y-94466666D02*
X141140533Y-94561904D01*
D12*
%TO.C,J5*%
X143695000Y-87410000D02*
X145075000Y-87410000D01*
X143695000Y-88790000D02*
X143695000Y-87410000D01*
X143695000Y-90060000D02*
X143695000Y-102870000D01*
X143695000Y-90060000D02*
X146455000Y-90060000D01*
X143695000Y-102870000D02*
X146455000Y-102870000D01*
X146455000Y-90060000D02*
X146455000Y-102870000D01*
%TO.C,U1*%
X139400000Y-92680000D02*
X139160000Y-92350000D01*
X139640000Y-92350000D01*
X139400000Y-92680000D01*
G36*
X139400000Y-92680000D02*
G01*
X139160000Y-92350000D01*
X139640000Y-92350000D01*
X139400000Y-92680000D01*
G37*
X136990000Y-96410000D02*
X136990000Y-95960000D01*
X137440000Y-96410000D02*
X136990000Y-96410000D01*
X140210000Y-96410000D02*
X139760000Y-96410000D01*
X140210000Y-95960000D02*
X140210000Y-96410000D01*
X136990000Y-93640000D02*
X136990000Y-93190000D01*
X136990000Y-93190000D02*
X137440000Y-93190000D01*
X139760000Y-93190000D02*
X140210000Y-93190000D01*
X140210000Y-93190000D02*
X140210000Y-93640000D01*
%TO.C,C1*%
X146535000Y-124060000D02*
X146535000Y-122360000D01*
X146535000Y-118540000D02*
X146535000Y-120240000D01*
X142079437Y-124060000D02*
X146535000Y-124060000D01*
X142079437Y-118540000D02*
X146535000Y-118540000D01*
X141015000Y-122995563D02*
X142079437Y-124060000D01*
X141015000Y-122995563D02*
X141015000Y-122360000D01*
X141015000Y-119604437D02*
X142079437Y-118540000D01*
X141015000Y-119604437D02*
X141015000Y-120240000D01*
%TO.C,U3*%
X132635000Y-97685000D02*
X127115000Y-97685000D01*
X132635000Y-96940000D02*
X132635000Y-97685000D01*
X132635000Y-91265000D02*
X132635000Y-92010000D01*
X127115000Y-97685000D02*
X127115000Y-96940000D01*
X127115000Y-92010000D02*
X127115000Y-91265000D01*
X127115000Y-91265000D02*
X132635000Y-91265000D01*
X133715000Y-97415000D02*
X133035000Y-97415000D01*
X133375000Y-96945000D01*
X133715000Y-97415000D01*
G36*
X133715000Y-97415000D02*
G01*
X133035000Y-97415000D01*
X133375000Y-96945000D01*
X133715000Y-97415000D01*
G37*
%TO.C,J1*%
X134130000Y-86470000D02*
X139320000Y-86470000D01*
X139320000Y-89230000D02*
X139320000Y-86470000D01*
X134130000Y-89230000D02*
X134130000Y-86470000D01*
X134130000Y-89230000D02*
X139320000Y-89230000D01*
X132860000Y-89230000D02*
X131480000Y-89230000D01*
X131480000Y-89230000D02*
X131480000Y-87850000D01*
%TO.C,C6*%
X134985000Y-103584420D02*
X134985000Y-103865580D01*
X133965000Y-103584420D02*
X133965000Y-103865580D01*
%TO.C,C5*%
X129885000Y-103596920D02*
X129885000Y-103878080D01*
X128865000Y-103596920D02*
X128865000Y-103878080D01*
%TO.C,U5*%
X130415000Y-104447500D02*
X130415000Y-102627500D01*
X130465000Y-104447500D02*
X130415000Y-104447500D01*
X133535000Y-104447500D02*
X133485000Y-104447500D01*
X130415000Y-102627500D02*
X130465000Y-102627500D01*
X131585000Y-102627500D02*
X132365000Y-102627500D01*
X133485000Y-102627500D02*
X133535000Y-102627500D01*
X133535000Y-102627500D02*
X133535000Y-104447500D01*
X130465000Y-104987500D02*
X130135000Y-105227500D01*
X130135000Y-104747500D01*
X130465000Y-104987500D01*
G36*
X130465000Y-104987500D02*
G01*
X130135000Y-105227500D01*
X130135000Y-104747500D01*
X130465000Y-104987500D01*
G37*
%TO.C,C7*%
X134010000Y-109784420D02*
X134010000Y-110065580D01*
X132990000Y-109784420D02*
X132990000Y-110065580D01*
%TO.C,J4*%
X130505000Y-120755000D02*
X125315000Y-120755000D01*
X125315000Y-117995000D02*
X125315000Y-120755000D01*
X130505000Y-117995000D02*
X130505000Y-120755000D01*
X130505000Y-117995000D02*
X125315000Y-117995000D01*
X131775000Y-117995000D02*
X133155000Y-117995000D01*
X133155000Y-117995000D02*
X133155000Y-119375000D01*
%TO.C,U2*%
X146655000Y-106615000D02*
X146185000Y-106275000D01*
X146655000Y-105935000D01*
X146655000Y-106615000D01*
G36*
X146655000Y-106615000D02*
G01*
X146185000Y-106275000D01*
X146655000Y-105935000D01*
X146655000Y-106615000D01*
G37*
X135965000Y-112435000D02*
X135965000Y-106915000D01*
X136170000Y-112435000D02*
X135965000Y-112435000D01*
X146385000Y-112435000D02*
X146180000Y-112435000D01*
X135965000Y-106915000D02*
X136170000Y-106915000D01*
X146180000Y-106915000D02*
X146385000Y-106915000D01*
X146385000Y-106915000D02*
X146385000Y-112435000D01*
%TO.C,C4*%
X132510000Y-109784420D02*
X132510000Y-110065580D01*
X131490000Y-109784420D02*
X131490000Y-110065580D01*
%TO.C,C2*%
X128490000Y-109784420D02*
X128490000Y-110065580D01*
X129510000Y-109784420D02*
X129510000Y-110065580D01*
%TO.C,R1*%
X130960436Y-107885000D02*
X131414564Y-107885000D01*
X130960436Y-106415000D02*
X131414564Y-106415000D01*
%TO.C,C3*%
X129990000Y-109784420D02*
X129990000Y-110065580D01*
X131010000Y-109784420D02*
X131010000Y-110065580D01*
%TO.C,J2*%
X126755000Y-105135000D02*
X126755000Y-112865000D01*
X123995000Y-112865000D02*
X126755000Y-112865000D01*
X123995000Y-105135000D02*
X126755000Y-105135000D01*
X123995000Y-105135000D02*
X123995000Y-112865000D01*
X123995000Y-103865000D02*
X123995000Y-102485000D01*
X123995000Y-102485000D02*
X125375000Y-102485000D01*
%TO.C,J3*%
X127625000Y-126350000D02*
X127625000Y-127600000D01*
X127915000Y-126640000D02*
X127915000Y-132610000D01*
X127915000Y-132610000D02*
X143035000Y-132610000D01*
X127925000Y-126650000D02*
X127925000Y-127400000D01*
X127925000Y-127400000D02*
X129725000Y-127400000D01*
X127925000Y-128900000D02*
X128675000Y-128900000D01*
X128675000Y-128900000D02*
X128675000Y-131850000D01*
X128675000Y-131850000D02*
X135475000Y-131850000D01*
X128875000Y-126350000D02*
X127625000Y-126350000D01*
X129725000Y-126650000D02*
X127925000Y-126650000D01*
X129725000Y-127400000D02*
X129725000Y-126650000D01*
X131225000Y-126650000D02*
X131225000Y-127400000D01*
X131225000Y-127400000D02*
X139725000Y-127400000D01*
X139725000Y-126650000D02*
X131225000Y-126650000D01*
X139725000Y-127400000D02*
X139725000Y-126650000D01*
X141225000Y-126650000D02*
X141225000Y-127400000D01*
X141225000Y-127400000D02*
X143025000Y-127400000D01*
X142275000Y-128900000D02*
X142275000Y-131850000D01*
X142275000Y-131850000D02*
X135475000Y-131850000D01*
X143025000Y-126650000D02*
X141225000Y-126650000D01*
X143025000Y-127400000D02*
X143025000Y-126650000D01*
X143025000Y-128900000D02*
X142275000Y-128900000D01*
X143035000Y-126640000D02*
X127915000Y-126640000D01*
X143035000Y-132610000D02*
X143035000Y-126640000D01*
%TD*%
M02*
