%TF.GenerationSoftware,KiCad,Pcbnew,9.0.5*%
%TF.CreationDate,2025-11-13T00:09:03-05:00*%
%TF.ProjectId,SplitFlapDriverATtiny1616V2,53706c69-7446-46c6-9170-447269766572,rev?*%
%TF.SameCoordinates,Original*%
%TF.FileFunction,Copper,L2,Bot*%
%TF.FilePolarity,Positive*%
%FSLAX46Y46*%
G04 Gerber Fmt 4.6, Leading zero omitted, Abs format (unit mm)*
G04 Created by KiCad (PCBNEW 9.0.5) date 2025-11-13 00:09:03*
%MOMM*%
%LPD*%
G01*
G04 APERTURE LIST*
G04 Aperture macros list*
%AMRoundRect*
0 Rectangle with rounded corners*
0 $1 Rounding radius*
0 $2 $3 $4 $5 $6 $7 $8 $9 X,Y pos of 4 corners*
0 Add a 4 corners polygon primitive as box body*
4,1,4,$2,$3,$4,$5,$6,$7,$8,$9,$2,$3,0*
0 Add four circle primitives for the rounded corners*
1,1,$1+$1,$2,$3*
1,1,$1+$1,$4,$5*
1,1,$1+$1,$6,$7*
1,1,$1+$1,$8,$9*
0 Add four rect primitives between the rounded corners*
20,1,$1+$1,$2,$3,$4,$5,0*
20,1,$1+$1,$4,$5,$6,$7,0*
20,1,$1+$1,$6,$7,$8,$9,0*
20,1,$1+$1,$8,$9,$2,$3,0*%
G04 Aperture macros list end*
%TA.AperFunction,ComponentPad*%
%ADD10R,1.700000X1.700000*%
%TD*%
%TA.AperFunction,ComponentPad*%
%ADD11C,1.700000*%
%TD*%
%TA.AperFunction,ComponentPad*%
%ADD12RoundRect,0.250000X-0.600000X-0.725000X0.600000X-0.725000X0.600000X0.725000X-0.600000X0.725000X0*%
%TD*%
%TA.AperFunction,ComponentPad*%
%ADD13O,1.700000X1.950000*%
%TD*%
%TA.AperFunction,ViaPad*%
%ADD14C,0.600000*%
%TD*%
%TA.AperFunction,Conductor*%
%ADD15C,0.200000*%
%TD*%
G04 APERTURE END LIST*
D10*
%TO.P,J5,1,Pin_1*%
%TO.N,IO1*%
X145075000Y-88790000D03*
D11*
%TO.P,J5,2,Pin_2*%
%TO.N,IO2*%
X145075000Y-91330000D03*
%TO.P,J5,3,Pin_3*%
%TO.N,IO3*%
X145075000Y-93870000D03*
%TO.P,J5,4,Pin_4*%
%TO.N,IO4*%
X145075000Y-96410000D03*
%TO.P,J5,5,Pin_5*%
%TO.N,IO5*%
X145075000Y-98950000D03*
%TO.P,J5,6,Pin_6*%
%TO.N,IO6*%
X145075000Y-101490000D03*
%TD*%
%TO.P,J1,3,Pin_3*%
%TO.N,UPDI*%
X137940000Y-87850000D03*
%TO.P,J1,2,Pin_2*%
%TO.N,GND*%
X135400000Y-87850000D03*
D10*
%TO.P,J1,1,Pin_1*%
%TO.N,+3V3*%
X132860000Y-87850000D03*
%TD*%
D11*
%TO.P,J4,3,Pin_3*%
%TO.N,+VBUSF*%
X126695000Y-119375000D03*
%TO.P,J4,2,Pin_2*%
%TO.N,GND*%
X129235000Y-119375000D03*
D10*
%TO.P,J4,1,Pin_1*%
%TO.N,HALL_IN*%
X131775000Y-119375000D03*
%TD*%
D11*
%TO.P,J2,4,Pin_4*%
%TO.N,RS465_A*%
X125375000Y-111485000D03*
%TO.P,J2,3,Pin_3*%
%TO.N,RS465_B*%
X125375000Y-108945000D03*
%TO.P,J2,2,Pin_2*%
%TO.N,GND*%
X125375000Y-106405000D03*
D10*
%TO.P,J2,1,Pin_1*%
%TO.N,+VBUS*%
X125375000Y-103865000D03*
%TD*%
D12*
%TO.P,J3,1,Pin_1*%
%TO.N,M4*%
X130475000Y-129100000D03*
D13*
%TO.P,J3,2,Pin_2*%
%TO.N,M3*%
X132975000Y-129100000D03*
%TO.P,J3,3,Pin_3*%
%TO.N,M2*%
X135475000Y-129100000D03*
%TO.P,J3,4,Pin_4*%
%TO.N,M1*%
X137975000Y-129100000D03*
%TO.P,J3,5,Pin_5*%
%TO.N,+VBUSF*%
X140475000Y-129100000D03*
%TD*%
D14*
%TO.N,HALL_IN*%
X131775000Y-116950000D03*
X135500000Y-97125000D03*
%TO.N,+VBUSF*%
X136725000Y-118400000D03*
X139100000Y-120775000D03*
%TO.N,GND*%
X124650000Y-92575000D03*
X138600000Y-92250000D03*
%TO.N,UPDI*%
X139800000Y-90625000D03*
X142175000Y-93950000D03*
%TO.N,GND*%
X136725000Y-104550000D03*
X145875000Y-125025000D03*
X130025000Y-105737500D03*
X131975000Y-105925000D03*
X134025000Y-105825000D03*
X133500000Y-111700000D03*
X132000000Y-111700000D03*
X130500000Y-111700000D03*
X129000000Y-111700000D03*
%TD*%
D15*
%TO.N,HALL_IN*%
X135500000Y-113225000D02*
X135500000Y-97125000D01*
X131775000Y-116950000D02*
X135500000Y-113225000D01*
%TO.N,+VBUSF*%
X136725000Y-118400000D02*
X139100000Y-120775000D01*
%TO.N,UPDI*%
X139850000Y-90625000D02*
X139800000Y-90625000D01*
X142075000Y-93850000D02*
X142075000Y-92850000D01*
X142175000Y-93950000D02*
X142075000Y-93850000D01*
X142075000Y-92850000D02*
X139850000Y-90625000D01*
%TD*%
%TA.AperFunction,Conductor*%
%TO.N,GND*%
G36*
X148943039Y-80994037D02*
G01*
X148988794Y-81046841D01*
X149000000Y-81098352D01*
X149000000Y-138850352D01*
X148980315Y-138917391D01*
X148927511Y-138963146D01*
X148876000Y-138974352D01*
X121124000Y-138974352D01*
X121056961Y-138954667D01*
X121011206Y-138901863D01*
X121000000Y-138850352D01*
X121000000Y-136871907D01*
X121372500Y-136871907D01*
X121372500Y-137128092D01*
X121402960Y-137320404D01*
X121412574Y-137381107D01*
X121491736Y-137624743D01*
X121608037Y-137852996D01*
X121758612Y-138060245D01*
X121939755Y-138241388D01*
X122147004Y-138391963D01*
X122375257Y-138508264D01*
X122618893Y-138587426D01*
X122749249Y-138608072D01*
X122871908Y-138627500D01*
X122871913Y-138627500D01*
X123128092Y-138627500D01*
X123239908Y-138609789D01*
X123381107Y-138587426D01*
X123624743Y-138508264D01*
X123852996Y-138391963D01*
X124060245Y-138241388D01*
X124241388Y-138060245D01*
X124391963Y-137852996D01*
X124508264Y-137624743D01*
X124587426Y-137381107D01*
X124609789Y-137239908D01*
X124627500Y-137128092D01*
X124627500Y-136871907D01*
X145372500Y-136871907D01*
X145372500Y-137128092D01*
X145402960Y-137320404D01*
X145412574Y-137381107D01*
X145491736Y-137624743D01*
X145608037Y-137852996D01*
X145758612Y-138060245D01*
X145939755Y-138241388D01*
X146147004Y-138391963D01*
X146375257Y-138508264D01*
X146618893Y-138587426D01*
X146749249Y-138608072D01*
X146871908Y-138627500D01*
X146871913Y-138627500D01*
X147128092Y-138627500D01*
X147239908Y-138609789D01*
X147381107Y-138587426D01*
X147624743Y-138508264D01*
X147852996Y-138391963D01*
X148060245Y-138241388D01*
X148241388Y-138060245D01*
X148391963Y-137852996D01*
X148508264Y-137624743D01*
X148587426Y-137381107D01*
X148609789Y-137239908D01*
X148627500Y-137128092D01*
X148627500Y-136871907D01*
X148597040Y-136679596D01*
X148587426Y-136618893D01*
X148508264Y-136375257D01*
X148391963Y-136147004D01*
X148241388Y-135939755D01*
X148060245Y-135758612D01*
X147852996Y-135608037D01*
X147624743Y-135491736D01*
X147381107Y-135412574D01*
X147128092Y-135372500D01*
X147128087Y-135372500D01*
X146871913Y-135372500D01*
X146871908Y-135372500D01*
X146618892Y-135412574D01*
X146375254Y-135491737D01*
X146147003Y-135608037D01*
X145939752Y-135758614D01*
X145758614Y-135939752D01*
X145608037Y-136147003D01*
X145491737Y-136375254D01*
X145412574Y-136618892D01*
X145372500Y-136871907D01*
X124627500Y-136871907D01*
X124597040Y-136679596D01*
X124587426Y-136618893D01*
X124508264Y-136375257D01*
X124391963Y-136147004D01*
X124241388Y-135939755D01*
X124060245Y-135758612D01*
X123852996Y-135608037D01*
X123624743Y-135491736D01*
X123381107Y-135412574D01*
X123128092Y-135372500D01*
X123128087Y-135372500D01*
X122871913Y-135372500D01*
X122871908Y-135372500D01*
X122618892Y-135412574D01*
X122375254Y-135491737D01*
X122147003Y-135608037D01*
X121939752Y-135758614D01*
X121758614Y-135939752D01*
X121608037Y-136147003D01*
X121491737Y-136375254D01*
X121412574Y-136618892D01*
X121372500Y-136871907D01*
X121000000Y-136871907D01*
X121000000Y-128324983D01*
X129124500Y-128324983D01*
X129124500Y-129875001D01*
X129124501Y-129875018D01*
X129135000Y-129977796D01*
X129135001Y-129977799D01*
X129180894Y-130116294D01*
X129190186Y-130144334D01*
X129282288Y-130293656D01*
X129406344Y-130417712D01*
X129555666Y-130509814D01*
X129722203Y-130564999D01*
X129824991Y-130575500D01*
X131125008Y-130575499D01*
X131227797Y-130564999D01*
X131394334Y-130509814D01*
X131543656Y-130417712D01*
X131667712Y-130293656D01*
X131759814Y-130144334D01*
X131759814Y-130144331D01*
X131763178Y-130138879D01*
X131815126Y-130092154D01*
X131884088Y-130080931D01*
X131948170Y-130108774D01*
X131956398Y-130116294D01*
X132095213Y-130255109D01*
X132267179Y-130380048D01*
X132267181Y-130380049D01*
X132267184Y-130380051D01*
X132456588Y-130476557D01*
X132658757Y-130542246D01*
X132868713Y-130575500D01*
X132868714Y-130575500D01*
X133081286Y-130575500D01*
X133081287Y-130575500D01*
X133291243Y-130542246D01*
X133493412Y-130476557D01*
X133682816Y-130380051D01*
X133704789Y-130364086D01*
X133854786Y-130255109D01*
X133854788Y-130255106D01*
X133854792Y-130255104D01*
X134005104Y-130104792D01*
X134124683Y-129940204D01*
X134180011Y-129897540D01*
X134249624Y-129891561D01*
X134311420Y-129924166D01*
X134325313Y-129940199D01*
X134427560Y-130080931D01*
X134444896Y-130104792D01*
X134595213Y-130255109D01*
X134767179Y-130380048D01*
X134767181Y-130380049D01*
X134767184Y-130380051D01*
X134956588Y-130476557D01*
X135158757Y-130542246D01*
X135368713Y-130575500D01*
X135368714Y-130575500D01*
X135581286Y-130575500D01*
X135581287Y-130575500D01*
X135791243Y-130542246D01*
X135993412Y-130476557D01*
X136182816Y-130380051D01*
X136204789Y-130364086D01*
X136354786Y-130255109D01*
X136354788Y-130255106D01*
X136354792Y-130255104D01*
X136505104Y-130104792D01*
X136624683Y-129940204D01*
X136680011Y-129897540D01*
X136749624Y-129891561D01*
X136811420Y-129924166D01*
X136825313Y-129940199D01*
X136927560Y-130080931D01*
X136944896Y-130104792D01*
X137095213Y-130255109D01*
X137267179Y-130380048D01*
X137267181Y-130380049D01*
X137267184Y-130380051D01*
X137456588Y-130476557D01*
X137658757Y-130542246D01*
X137868713Y-130575500D01*
X137868714Y-130575500D01*
X138081286Y-130575500D01*
X138081287Y-130575500D01*
X138291243Y-130542246D01*
X138493412Y-130476557D01*
X138682816Y-130380051D01*
X138704789Y-130364086D01*
X138854786Y-130255109D01*
X138854788Y-130255106D01*
X138854792Y-130255104D01*
X139005104Y-130104792D01*
X139124683Y-129940204D01*
X139180011Y-129897540D01*
X139249624Y-129891561D01*
X139311420Y-129924166D01*
X139325313Y-129940199D01*
X139427560Y-130080931D01*
X139444896Y-130104792D01*
X139595213Y-130255109D01*
X139767179Y-130380048D01*
X139767181Y-130380049D01*
X139767184Y-130380051D01*
X139956588Y-130476557D01*
X140158757Y-130542246D01*
X140368713Y-130575500D01*
X140368714Y-130575500D01*
X140581286Y-130575500D01*
X140581287Y-130575500D01*
X140791243Y-130542246D01*
X140993412Y-130476557D01*
X141182816Y-130380051D01*
X141204789Y-130364086D01*
X141354786Y-130255109D01*
X141354788Y-130255106D01*
X141354792Y-130255104D01*
X141505104Y-130104792D01*
X141505106Y-130104788D01*
X141505109Y-130104786D01*
X141630048Y-129932820D01*
X141630047Y-129932820D01*
X141630051Y-129932816D01*
X141726557Y-129743412D01*
X141792246Y-129541243D01*
X141825500Y-129331287D01*
X141825500Y-128868713D01*
X141792246Y-128658757D01*
X141726557Y-128456588D01*
X141630051Y-128267184D01*
X141630049Y-128267181D01*
X141630048Y-128267179D01*
X141505109Y-128095213D01*
X141354786Y-127944890D01*
X141182820Y-127819951D01*
X140993414Y-127723444D01*
X140993413Y-127723443D01*
X140993412Y-127723443D01*
X140791243Y-127657754D01*
X140791241Y-127657753D01*
X140791240Y-127657753D01*
X140629957Y-127632208D01*
X140581287Y-127624500D01*
X140368713Y-127624500D01*
X140320042Y-127632208D01*
X140158760Y-127657753D01*
X139956585Y-127723444D01*
X139767179Y-127819951D01*
X139595213Y-127944890D01*
X139444894Y-128095209D01*
X139444890Y-128095214D01*
X139325318Y-128259793D01*
X139269989Y-128302459D01*
X139200375Y-128308438D01*
X139138580Y-128275833D01*
X139124682Y-128259793D01*
X139005109Y-128095214D01*
X139005105Y-128095209D01*
X138854786Y-127944890D01*
X138682820Y-127819951D01*
X138493414Y-127723444D01*
X138493413Y-127723443D01*
X138493412Y-127723443D01*
X138291243Y-127657754D01*
X138291241Y-127657753D01*
X138291240Y-127657753D01*
X138129957Y-127632208D01*
X138081287Y-127624500D01*
X137868713Y-127624500D01*
X137820042Y-127632208D01*
X137658760Y-127657753D01*
X137456585Y-127723444D01*
X137267179Y-127819951D01*
X137095213Y-127944890D01*
X136944894Y-128095209D01*
X136944890Y-128095214D01*
X136825318Y-128259793D01*
X136769989Y-128302459D01*
X136700375Y-128308438D01*
X136638580Y-128275833D01*
X136624682Y-128259793D01*
X136505109Y-128095214D01*
X136505105Y-128095209D01*
X136354786Y-127944890D01*
X136182820Y-127819951D01*
X135993414Y-127723444D01*
X135993413Y-127723443D01*
X135993412Y-127723443D01*
X135791243Y-127657754D01*
X135791241Y-127657753D01*
X135791240Y-127657753D01*
X135629957Y-127632208D01*
X135581287Y-127624500D01*
X135368713Y-127624500D01*
X135320042Y-127632208D01*
X135158760Y-127657753D01*
X134956585Y-127723444D01*
X134767179Y-127819951D01*
X134595213Y-127944890D01*
X134444894Y-128095209D01*
X134444890Y-128095214D01*
X134325318Y-128259793D01*
X134269989Y-128302459D01*
X134200375Y-128308438D01*
X134138580Y-128275833D01*
X134124682Y-128259793D01*
X134005109Y-128095214D01*
X134005105Y-128095209D01*
X133854786Y-127944890D01*
X133682820Y-127819951D01*
X133493414Y-127723444D01*
X133493413Y-127723443D01*
X133493412Y-127723443D01*
X133291243Y-127657754D01*
X133291241Y-127657753D01*
X133291240Y-127657753D01*
X133129957Y-127632208D01*
X133081287Y-127624500D01*
X132868713Y-127624500D01*
X132820042Y-127632208D01*
X132658760Y-127657753D01*
X132456585Y-127723444D01*
X132267179Y-127819951D01*
X132095215Y-127944889D01*
X131956398Y-128083706D01*
X131895075Y-128117190D01*
X131825383Y-128112206D01*
X131769450Y-128070334D01*
X131763178Y-128061120D01*
X131667712Y-127906344D01*
X131543657Y-127782289D01*
X131543656Y-127782288D01*
X131394334Y-127690186D01*
X131227797Y-127635001D01*
X131227795Y-127635000D01*
X131125010Y-127624500D01*
X129824998Y-127624500D01*
X129824981Y-127624501D01*
X129722203Y-127635000D01*
X129722200Y-127635001D01*
X129555668Y-127690185D01*
X129555663Y-127690187D01*
X129406342Y-127782289D01*
X129282289Y-127906342D01*
X129190187Y-128055663D01*
X129190185Y-128055668D01*
X129185325Y-128070334D01*
X129135001Y-128222203D01*
X129135001Y-128222204D01*
X129135000Y-128222204D01*
X129124500Y-128324983D01*
X121000000Y-128324983D01*
X121000000Y-119268713D01*
X125344500Y-119268713D01*
X125344500Y-119481286D01*
X125377753Y-119691239D01*
X125443444Y-119893414D01*
X125539951Y-120082820D01*
X125664890Y-120254786D01*
X125815213Y-120405109D01*
X125987179Y-120530048D01*
X125987181Y-120530049D01*
X125987184Y-120530051D01*
X126176588Y-120626557D01*
X126378757Y-120692246D01*
X126588713Y-120725500D01*
X126588714Y-120725500D01*
X126801286Y-120725500D01*
X126801287Y-120725500D01*
X127011243Y-120692246D01*
X127213412Y-120626557D01*
X127402816Y-120530051D01*
X127489138Y-120467335D01*
X127574786Y-120405109D01*
X127574788Y-120405106D01*
X127574792Y-120405104D01*
X127725104Y-120254792D01*
X127725106Y-120254788D01*
X127725109Y-120254786D01*
X127798907Y-120153210D01*
X127850051Y-120082816D01*
X127854793Y-120073508D01*
X127902763Y-120022711D01*
X127970583Y-120005911D01*
X128036719Y-120028445D01*
X128075763Y-120073500D01*
X128080373Y-120082547D01*
X128119728Y-120136716D01*
X128752037Y-119504408D01*
X128769075Y-119567993D01*
X128834901Y-119682007D01*
X128927993Y-119775099D01*
X129042007Y-119840925D01*
X129105590Y-119857962D01*
X128473282Y-120490269D01*
X128473282Y-120490270D01*
X128527449Y-120529624D01*
X128716782Y-120626095D01*
X128918870Y-120691757D01*
X129128754Y-120725000D01*
X129341246Y-120725000D01*
X129551127Y-120691757D01*
X129551130Y-120691757D01*
X129753217Y-120626095D01*
X129942554Y-120529622D01*
X129996716Y-120490270D01*
X129996717Y-120490270D01*
X129364408Y-119857962D01*
X129427993Y-119840925D01*
X129542007Y-119775099D01*
X129635099Y-119682007D01*
X129700925Y-119567993D01*
X129717962Y-119504409D01*
X130388181Y-120174628D01*
X130421666Y-120235951D01*
X130424500Y-120262300D01*
X130424500Y-120272865D01*
X130424501Y-120272876D01*
X130430908Y-120332483D01*
X130481202Y-120467328D01*
X130481206Y-120467335D01*
X130567452Y-120582544D01*
X130567455Y-120582547D01*
X130682664Y-120668793D01*
X130682671Y-120668797D01*
X130817517Y-120719091D01*
X130817516Y-120719091D01*
X130824444Y-120719835D01*
X130877127Y-120725500D01*
X132672872Y-120725499D01*
X132732483Y-120719091D01*
X132867331Y-120668796D01*
X132982546Y-120582546D01*
X133068796Y-120467331D01*
X133119091Y-120332483D01*
X133125500Y-120272873D01*
X133125499Y-118477128D01*
X133119091Y-118417517D01*
X133114393Y-118404921D01*
X133097042Y-118358398D01*
X133083150Y-118321153D01*
X135924500Y-118321153D01*
X135924500Y-118478846D01*
X135955261Y-118633489D01*
X135955264Y-118633501D01*
X136015602Y-118779172D01*
X136015609Y-118779185D01*
X136103210Y-118910288D01*
X136103213Y-118910292D01*
X136214707Y-119021786D01*
X136214711Y-119021789D01*
X136345814Y-119109390D01*
X136345827Y-119109397D01*
X136491498Y-119169735D01*
X136491503Y-119169737D01*
X136553188Y-119182007D01*
X136646849Y-119200638D01*
X136708760Y-119233023D01*
X136710339Y-119234574D01*
X138265425Y-120789660D01*
X138298910Y-120850983D01*
X138299361Y-120853149D01*
X138330261Y-121008491D01*
X138330264Y-121008501D01*
X138390602Y-121154172D01*
X138390609Y-121154185D01*
X138478210Y-121285288D01*
X138478213Y-121285292D01*
X138589707Y-121396786D01*
X138589711Y-121396789D01*
X138720814Y-121484390D01*
X138720827Y-121484397D01*
X138866498Y-121544735D01*
X138866503Y-121544737D01*
X139021153Y-121575499D01*
X139021156Y-121575500D01*
X139021158Y-121575500D01*
X139178844Y-121575500D01*
X139178845Y-121575499D01*
X139333497Y-121544737D01*
X139479179Y-121484394D01*
X139610289Y-121396789D01*
X139721789Y-121285289D01*
X139809394Y-121154179D01*
X139869737Y-121008497D01*
X139900500Y-120853842D01*
X139900500Y-120696158D01*
X139900500Y-120696155D01*
X139900499Y-120696153D01*
X139899625Y-120691757D01*
X139869737Y-120541503D01*
X139869735Y-120541498D01*
X139809397Y-120395827D01*
X139809390Y-120395814D01*
X139721789Y-120264711D01*
X139721786Y-120264707D01*
X139610292Y-120153213D01*
X139610288Y-120153210D01*
X139479185Y-120065609D01*
X139479172Y-120065602D01*
X139333501Y-120005264D01*
X139333491Y-120005261D01*
X139178149Y-119974361D01*
X139116238Y-119941976D01*
X139114660Y-119940425D01*
X137559574Y-118385339D01*
X137526089Y-118324016D01*
X137525638Y-118321849D01*
X137505453Y-118220375D01*
X137494737Y-118166503D01*
X137459406Y-118081206D01*
X137434397Y-118020827D01*
X137434390Y-118020814D01*
X137346789Y-117889711D01*
X137346786Y-117889707D01*
X137235292Y-117778213D01*
X137235288Y-117778210D01*
X137104185Y-117690609D01*
X137104172Y-117690602D01*
X136958501Y-117630264D01*
X136958489Y-117630261D01*
X136803845Y-117599500D01*
X136803842Y-117599500D01*
X136646158Y-117599500D01*
X136646155Y-117599500D01*
X136491510Y-117630261D01*
X136491498Y-117630264D01*
X136345827Y-117690602D01*
X136345814Y-117690609D01*
X136214711Y-117778210D01*
X136214707Y-117778213D01*
X136103213Y-117889707D01*
X136103210Y-117889711D01*
X136015609Y-118020814D01*
X136015602Y-118020827D01*
X135955264Y-118166498D01*
X135955261Y-118166510D01*
X135924500Y-118321153D01*
X133083150Y-118321153D01*
X133068797Y-118282671D01*
X133068793Y-118282664D01*
X132982547Y-118167455D01*
X132982544Y-118167452D01*
X132867335Y-118081206D01*
X132867328Y-118081202D01*
X132732482Y-118030908D01*
X132732483Y-118030908D01*
X132672883Y-118024501D01*
X132672881Y-118024500D01*
X132672873Y-118024500D01*
X132672864Y-118024500D01*
X130877129Y-118024500D01*
X130877123Y-118024501D01*
X130817516Y-118030908D01*
X130682671Y-118081202D01*
X130682664Y-118081206D01*
X130567455Y-118167452D01*
X130567452Y-118167455D01*
X130481206Y-118282664D01*
X130481202Y-118282671D01*
X130430908Y-118417517D01*
X130424501Y-118477116D01*
X130424501Y-118477123D01*
X130424500Y-118477135D01*
X130424500Y-118487690D01*
X130404815Y-118554729D01*
X130388181Y-118575371D01*
X129717962Y-119245590D01*
X129700925Y-119182007D01*
X129635099Y-119067993D01*
X129542007Y-118974901D01*
X129427993Y-118909075D01*
X129364409Y-118892037D01*
X129996716Y-118259728D01*
X129942550Y-118220375D01*
X129753217Y-118123904D01*
X129551129Y-118058242D01*
X129341246Y-118025000D01*
X129128754Y-118025000D01*
X128918872Y-118058242D01*
X128918869Y-118058242D01*
X128716782Y-118123904D01*
X128527439Y-118220380D01*
X128473282Y-118259727D01*
X128473282Y-118259728D01*
X129105591Y-118892037D01*
X129042007Y-118909075D01*
X128927993Y-118974901D01*
X128834901Y-119067993D01*
X128769075Y-119182007D01*
X128752037Y-119245591D01*
X128119728Y-118613282D01*
X128119727Y-118613282D01*
X128080380Y-118667440D01*
X128080376Y-118667446D01*
X128075760Y-118676505D01*
X128027781Y-118727297D01*
X127959959Y-118744087D01*
X127893826Y-118721543D01*
X127854794Y-118676493D01*
X127850051Y-118667184D01*
X127850049Y-118667181D01*
X127850048Y-118667179D01*
X127725109Y-118495213D01*
X127574786Y-118344890D01*
X127402820Y-118219951D01*
X127213414Y-118123444D01*
X127213413Y-118123443D01*
X127213412Y-118123443D01*
X127011243Y-118057754D01*
X127011241Y-118057753D01*
X127011240Y-118057753D01*
X126849957Y-118032208D01*
X126801287Y-118024500D01*
X126588713Y-118024500D01*
X126540042Y-118032208D01*
X126378760Y-118057753D01*
X126176585Y-118123444D01*
X125987179Y-118219951D01*
X125815213Y-118344890D01*
X125664890Y-118495213D01*
X125539951Y-118667179D01*
X125443444Y-118856585D01*
X125377753Y-119058760D01*
X125344500Y-119268713D01*
X121000000Y-119268713D01*
X121000000Y-116871153D01*
X130974500Y-116871153D01*
X130974500Y-117028846D01*
X131005261Y-117183489D01*
X131005264Y-117183501D01*
X131065602Y-117329172D01*
X131065609Y-117329185D01*
X131153210Y-117460288D01*
X131153213Y-117460292D01*
X131264707Y-117571786D01*
X131264711Y-117571789D01*
X131395814Y-117659390D01*
X131395827Y-117659397D01*
X131471181Y-117690609D01*
X131541503Y-117719737D01*
X131696153Y-117750499D01*
X131696156Y-117750500D01*
X131696158Y-117750500D01*
X131853844Y-117750500D01*
X131853845Y-117750499D01*
X132008497Y-117719737D01*
X132154179Y-117659394D01*
X132285289Y-117571789D01*
X132396789Y-117460289D01*
X132484394Y-117329179D01*
X132544737Y-117183497D01*
X132564113Y-117086085D01*
X132575638Y-117028150D01*
X132608023Y-116966239D01*
X132609518Y-116964716D01*
X135980520Y-113593716D01*
X136059577Y-113456784D01*
X136100501Y-113304057D01*
X136100501Y-113145942D01*
X136100501Y-113138347D01*
X136100500Y-113138329D01*
X136100500Y-97704765D01*
X136120185Y-97637726D01*
X136121398Y-97635874D01*
X136209390Y-97504185D01*
X136209390Y-97504184D01*
X136209394Y-97504179D01*
X136269737Y-97358497D01*
X136300500Y-97203842D01*
X136300500Y-97046158D01*
X136300500Y-97046155D01*
X136300499Y-97046153D01*
X136277079Y-96928414D01*
X136269737Y-96891503D01*
X136269735Y-96891498D01*
X136209397Y-96745827D01*
X136209390Y-96745814D01*
X136121789Y-96614711D01*
X136121786Y-96614707D01*
X136010292Y-96503213D01*
X136010288Y-96503210D01*
X135879185Y-96415609D01*
X135879172Y-96415602D01*
X135733501Y-96355264D01*
X135733489Y-96355261D01*
X135578845Y-96324500D01*
X135578842Y-96324500D01*
X135421158Y-96324500D01*
X135421155Y-96324500D01*
X135266510Y-96355261D01*
X135266498Y-96355264D01*
X135120827Y-96415602D01*
X135120814Y-96415609D01*
X134989711Y-96503210D01*
X134989707Y-96503213D01*
X134878213Y-96614707D01*
X134878210Y-96614711D01*
X134790609Y-96745814D01*
X134790602Y-96745827D01*
X134730264Y-96891498D01*
X134730261Y-96891510D01*
X134699500Y-97046153D01*
X134699500Y-97203846D01*
X134730261Y-97358489D01*
X134730264Y-97358501D01*
X134790602Y-97504172D01*
X134790609Y-97504185D01*
X134878602Y-97635874D01*
X134899480Y-97702551D01*
X134899500Y-97704765D01*
X134899500Y-112924902D01*
X134879815Y-112991941D01*
X134863181Y-113012583D01*
X131760339Y-116115425D01*
X131699016Y-116148910D01*
X131696850Y-116149361D01*
X131541508Y-116180261D01*
X131541498Y-116180264D01*
X131395827Y-116240602D01*
X131395814Y-116240609D01*
X131264711Y-116328210D01*
X131264707Y-116328213D01*
X131153213Y-116439707D01*
X131153210Y-116439711D01*
X131065609Y-116570814D01*
X131065602Y-116570827D01*
X131005264Y-116716498D01*
X131005261Y-116716510D01*
X130974500Y-116871153D01*
X121000000Y-116871153D01*
X121000000Y-102967135D01*
X124024500Y-102967135D01*
X124024500Y-104762870D01*
X124024501Y-104762876D01*
X124030908Y-104822483D01*
X124081202Y-104957328D01*
X124081206Y-104957335D01*
X124167452Y-105072544D01*
X124167455Y-105072547D01*
X124282664Y-105158793D01*
X124282671Y-105158797D01*
X124327618Y-105175561D01*
X124417517Y-105209091D01*
X124477127Y-105215500D01*
X124487685Y-105215499D01*
X124554723Y-105235179D01*
X124575372Y-105251818D01*
X125245591Y-105922037D01*
X125182007Y-105939075D01*
X125067993Y-106004901D01*
X124974901Y-106097993D01*
X124909075Y-106212007D01*
X124892037Y-106275591D01*
X124259728Y-105643282D01*
X124259727Y-105643282D01*
X124220380Y-105697439D01*
X124123904Y-105886782D01*
X124058242Y-106088869D01*
X124058242Y-106088872D01*
X124025000Y-106298753D01*
X124025000Y-106511246D01*
X124058242Y-106721127D01*
X124058242Y-106721130D01*
X124123904Y-106923217D01*
X124220375Y-107112550D01*
X124259728Y-107166716D01*
X124892037Y-106534408D01*
X124909075Y-106597993D01*
X124974901Y-106712007D01*
X125067993Y-106805099D01*
X125182007Y-106870925D01*
X125245590Y-106887962D01*
X124613282Y-107520269D01*
X124613282Y-107520270D01*
X124667452Y-107559626D01*
X124667451Y-107559626D01*
X124676495Y-107564234D01*
X124727292Y-107612208D01*
X124744087Y-107680029D01*
X124721550Y-107746164D01*
X124676499Y-107785202D01*
X124667182Y-107789949D01*
X124495213Y-107914890D01*
X124344890Y-108065213D01*
X124219951Y-108237179D01*
X124123444Y-108426585D01*
X124057753Y-108628760D01*
X124024500Y-108838713D01*
X124024500Y-109051286D01*
X124057753Y-109261239D01*
X124123444Y-109463414D01*
X124219951Y-109652820D01*
X124344890Y-109824786D01*
X124495213Y-109975109D01*
X124667182Y-110100050D01*
X124675946Y-110104516D01*
X124726742Y-110152491D01*
X124743536Y-110220312D01*
X124720998Y-110286447D01*
X124675946Y-110325484D01*
X124667182Y-110329949D01*
X124495213Y-110454890D01*
X124344890Y-110605213D01*
X124219951Y-110777179D01*
X124123444Y-110966585D01*
X124057753Y-111168760D01*
X124024500Y-111378713D01*
X124024500Y-111591286D01*
X124057753Y-111801239D01*
X124123444Y-112003414D01*
X124219951Y-112192820D01*
X124344890Y-112364786D01*
X124495213Y-112515109D01*
X124667179Y-112640048D01*
X124667181Y-112640049D01*
X124667184Y-112640051D01*
X124856588Y-112736557D01*
X125058757Y-112802246D01*
X125268713Y-112835500D01*
X125268714Y-112835500D01*
X125481286Y-112835500D01*
X125481287Y-112835500D01*
X125691243Y-112802246D01*
X125893412Y-112736557D01*
X126082816Y-112640051D01*
X126104789Y-112624086D01*
X126254786Y-112515109D01*
X126254788Y-112515106D01*
X126254792Y-112515104D01*
X126405104Y-112364792D01*
X126405106Y-112364788D01*
X126405109Y-112364786D01*
X126530048Y-112192820D01*
X126530047Y-112192820D01*
X126530051Y-112192816D01*
X126626557Y-112003412D01*
X126692246Y-111801243D01*
X126725500Y-111591287D01*
X126725500Y-111378713D01*
X126692246Y-111168757D01*
X126626557Y-110966588D01*
X126530051Y-110777184D01*
X126530049Y-110777181D01*
X126530048Y-110777179D01*
X126405109Y-110605213D01*
X126254786Y-110454890D01*
X126082820Y-110329951D01*
X126082115Y-110329591D01*
X126074054Y-110325485D01*
X126023259Y-110277512D01*
X126006463Y-110209692D01*
X126028999Y-110143556D01*
X126074054Y-110104515D01*
X126082816Y-110100051D01*
X126104789Y-110084086D01*
X126254786Y-109975109D01*
X126254788Y-109975106D01*
X126254792Y-109975104D01*
X126405104Y-109824792D01*
X126405106Y-109824788D01*
X126405109Y-109824786D01*
X126530048Y-109652820D01*
X126530047Y-109652820D01*
X126530051Y-109652816D01*
X126626557Y-109463412D01*
X126692246Y-109261243D01*
X126725500Y-109051287D01*
X126725500Y-108838713D01*
X126692246Y-108628757D01*
X126626557Y-108426588D01*
X126530051Y-108237184D01*
X126530049Y-108237181D01*
X126530048Y-108237179D01*
X126405109Y-108065213D01*
X126254786Y-107914890D01*
X126082817Y-107789949D01*
X126073504Y-107785204D01*
X126022707Y-107737230D01*
X126005912Y-107669409D01*
X126028449Y-107603274D01*
X126073507Y-107564232D01*
X126082555Y-107559622D01*
X126136716Y-107520270D01*
X126136717Y-107520270D01*
X125504408Y-106887962D01*
X125567993Y-106870925D01*
X125682007Y-106805099D01*
X125775099Y-106712007D01*
X125840925Y-106597993D01*
X125857962Y-106534409D01*
X126490270Y-107166717D01*
X126490270Y-107166716D01*
X126529622Y-107112554D01*
X126626095Y-106923217D01*
X126691757Y-106721130D01*
X126691757Y-106721127D01*
X126725000Y-106511246D01*
X126725000Y-106298753D01*
X126691757Y-106088872D01*
X126691757Y-106088869D01*
X126626095Y-105886782D01*
X126529624Y-105697449D01*
X126490270Y-105643282D01*
X126490269Y-105643282D01*
X125857962Y-106275590D01*
X125840925Y-106212007D01*
X125775099Y-106097993D01*
X125682007Y-106004901D01*
X125567993Y-105939075D01*
X125504409Y-105922037D01*
X126174627Y-105251818D01*
X126235950Y-105218333D01*
X126262307Y-105215499D01*
X126272872Y-105215499D01*
X126332483Y-105209091D01*
X126467331Y-105158796D01*
X126582546Y-105072546D01*
X126668796Y-104957331D01*
X126719091Y-104822483D01*
X126725500Y-104762873D01*
X126725499Y-102967128D01*
X126719091Y-102907517D01*
X126694095Y-102840500D01*
X126668797Y-102772671D01*
X126668793Y-102772664D01*
X126582547Y-102657455D01*
X126582544Y-102657452D01*
X126467335Y-102571206D01*
X126467328Y-102571202D01*
X126332482Y-102520908D01*
X126332483Y-102520908D01*
X126272883Y-102514501D01*
X126272881Y-102514500D01*
X126272873Y-102514500D01*
X126272864Y-102514500D01*
X124477129Y-102514500D01*
X124477123Y-102514501D01*
X124417516Y-102520908D01*
X124282671Y-102571202D01*
X124282664Y-102571206D01*
X124167455Y-102657452D01*
X124167452Y-102657455D01*
X124081206Y-102772664D01*
X124081202Y-102772671D01*
X124030908Y-102907517D01*
X124024501Y-102967116D01*
X124024501Y-102967123D01*
X124024500Y-102967135D01*
X121000000Y-102967135D01*
X121000000Y-90546153D01*
X138999500Y-90546153D01*
X138999500Y-90703846D01*
X139030261Y-90858489D01*
X139030264Y-90858501D01*
X139090602Y-91004172D01*
X139090609Y-91004185D01*
X139178210Y-91135288D01*
X139178213Y-91135292D01*
X139289707Y-91246786D01*
X139289711Y-91246789D01*
X139420814Y-91334390D01*
X139420827Y-91334397D01*
X139566498Y-91394735D01*
X139566503Y-91394737D01*
X139721153Y-91425499D01*
X139721156Y-91425500D01*
X139721158Y-91425500D01*
X139749903Y-91425500D01*
X139816942Y-91445185D01*
X139837584Y-91461819D01*
X141438181Y-93062416D01*
X141471666Y-93123739D01*
X141474500Y-93150097D01*
X141474500Y-93524684D01*
X141465061Y-93572136D01*
X141405264Y-93716498D01*
X141405261Y-93716510D01*
X141374500Y-93871153D01*
X141374500Y-94028846D01*
X141405261Y-94183489D01*
X141405264Y-94183501D01*
X141465602Y-94329172D01*
X141465609Y-94329185D01*
X141553210Y-94460288D01*
X141553213Y-94460292D01*
X141664707Y-94571786D01*
X141664711Y-94571789D01*
X141795814Y-94659390D01*
X141795827Y-94659397D01*
X141941498Y-94719735D01*
X141941503Y-94719737D01*
X142092569Y-94749786D01*
X142096153Y-94750499D01*
X142096156Y-94750500D01*
X142096158Y-94750500D01*
X142253844Y-94750500D01*
X142253845Y-94750499D01*
X142408497Y-94719737D01*
X142554179Y-94659394D01*
X142685289Y-94571789D01*
X142796789Y-94460289D01*
X142884394Y-94329179D01*
X142944737Y-94183497D01*
X142975500Y-94028842D01*
X142975500Y-93871158D01*
X142975500Y-93871155D01*
X142975499Y-93871153D01*
X142944737Y-93716503D01*
X142884939Y-93572136D01*
X142884397Y-93570827D01*
X142884390Y-93570814D01*
X142796789Y-93439711D01*
X142796786Y-93439707D01*
X142711819Y-93354740D01*
X142678334Y-93293417D01*
X142675500Y-93267059D01*
X142675500Y-92770945D01*
X142675500Y-92770943D01*
X142634577Y-92618215D01*
X142596783Y-92552754D01*
X142555520Y-92481284D01*
X142443716Y-92369480D01*
X142443715Y-92369479D01*
X142439385Y-92365149D01*
X142439374Y-92365139D01*
X140622157Y-90547922D01*
X140588672Y-90486599D01*
X140588250Y-90484575D01*
X140569737Y-90391503D01*
X140547026Y-90336673D01*
X140509397Y-90245827D01*
X140509390Y-90245814D01*
X140421789Y-90114711D01*
X140421786Y-90114707D01*
X140310292Y-90003213D01*
X140310288Y-90003210D01*
X140179185Y-89915609D01*
X140179172Y-89915602D01*
X140033501Y-89855264D01*
X140033489Y-89855261D01*
X139878845Y-89824500D01*
X139878842Y-89824500D01*
X139721158Y-89824500D01*
X139721155Y-89824500D01*
X139566510Y-89855261D01*
X139566498Y-89855264D01*
X139420827Y-89915602D01*
X139420814Y-89915609D01*
X139289711Y-90003210D01*
X139289707Y-90003213D01*
X139178213Y-90114707D01*
X139178210Y-90114711D01*
X139090609Y-90245814D01*
X139090602Y-90245827D01*
X139030264Y-90391498D01*
X139030261Y-90391510D01*
X138999500Y-90546153D01*
X121000000Y-90546153D01*
X121000000Y-86952135D01*
X131509500Y-86952135D01*
X131509500Y-88747870D01*
X131509501Y-88747876D01*
X131515908Y-88807483D01*
X131566202Y-88942328D01*
X131566206Y-88942335D01*
X131652452Y-89057544D01*
X131652455Y-89057547D01*
X131767664Y-89143793D01*
X131767671Y-89143797D01*
X131902517Y-89194091D01*
X131902516Y-89194091D01*
X131909444Y-89194835D01*
X131962127Y-89200500D01*
X133757872Y-89200499D01*
X133817483Y-89194091D01*
X133952331Y-89143796D01*
X134067546Y-89057546D01*
X134153796Y-88942331D01*
X134204091Y-88807483D01*
X134210500Y-88747873D01*
X134210499Y-88723979D01*
X134213330Y-88710963D01*
X134223940Y-88691525D01*
X134230179Y-88670275D01*
X134246803Y-88649643D01*
X134246808Y-88649636D01*
X134246811Y-88649634D01*
X134246818Y-88649626D01*
X134917037Y-87979408D01*
X134934075Y-88042993D01*
X134999901Y-88157007D01*
X135092993Y-88250099D01*
X135207007Y-88315925D01*
X135270590Y-88332962D01*
X134638282Y-88965269D01*
X134638282Y-88965270D01*
X134692449Y-89004624D01*
X134881782Y-89101095D01*
X135083870Y-89166757D01*
X135293754Y-89200000D01*
X135506246Y-89200000D01*
X135716127Y-89166757D01*
X135716130Y-89166757D01*
X135918217Y-89101095D01*
X136107554Y-89004622D01*
X136161716Y-88965270D01*
X136161717Y-88965270D01*
X135529408Y-88332962D01*
X135592993Y-88315925D01*
X135707007Y-88250099D01*
X135800099Y-88157007D01*
X135865925Y-88042993D01*
X135882962Y-87979408D01*
X136515270Y-88611717D01*
X136515270Y-88611716D01*
X136554622Y-88557555D01*
X136559232Y-88548507D01*
X136607205Y-88497709D01*
X136675025Y-88480912D01*
X136741161Y-88503447D01*
X136780204Y-88548504D01*
X136784949Y-88557817D01*
X136909890Y-88729786D01*
X137060213Y-88880109D01*
X137232179Y-89005048D01*
X137232181Y-89005049D01*
X137232184Y-89005051D01*
X137421588Y-89101557D01*
X137623757Y-89167246D01*
X137833713Y-89200500D01*
X137833714Y-89200500D01*
X138046286Y-89200500D01*
X138046287Y-89200500D01*
X138256243Y-89167246D01*
X138458412Y-89101557D01*
X138647816Y-89005051D01*
X138734138Y-88942335D01*
X138819786Y-88880109D01*
X138819788Y-88880106D01*
X138819792Y-88880104D01*
X138970104Y-88729792D01*
X138970106Y-88729788D01*
X138970109Y-88729786D01*
X139095048Y-88557820D01*
X139095050Y-88557817D01*
X139095051Y-88557816D01*
X139191557Y-88368412D01*
X139257246Y-88166243D01*
X139290500Y-87956287D01*
X139290500Y-87892135D01*
X143724500Y-87892135D01*
X143724500Y-89687870D01*
X143724501Y-89687876D01*
X143730908Y-89747483D01*
X143781202Y-89882328D01*
X143781206Y-89882335D01*
X143867452Y-89997544D01*
X143867455Y-89997547D01*
X143982664Y-90083793D01*
X143982671Y-90083797D01*
X144114082Y-90132810D01*
X144170016Y-90174681D01*
X144194433Y-90240145D01*
X144179582Y-90308418D01*
X144158431Y-90336673D01*
X144044889Y-90450215D01*
X143919951Y-90622179D01*
X143823444Y-90811585D01*
X143757753Y-91013760D01*
X143724500Y-91223713D01*
X143724500Y-91436286D01*
X143757753Y-91646239D01*
X143823444Y-91848414D01*
X143919951Y-92037820D01*
X144044890Y-92209786D01*
X144195213Y-92360109D01*
X144367182Y-92485050D01*
X144375946Y-92489516D01*
X144426742Y-92537491D01*
X144443536Y-92605312D01*
X144420998Y-92671447D01*
X144375946Y-92710484D01*
X144367182Y-92714949D01*
X144195213Y-92839890D01*
X144044890Y-92990213D01*
X143919951Y-93162179D01*
X143823444Y-93351585D01*
X143757753Y-93553760D01*
X143724500Y-93763713D01*
X143724500Y-93976286D01*
X143757753Y-94186239D01*
X143823444Y-94388414D01*
X143919951Y-94577820D01*
X144044890Y-94749786D01*
X144195213Y-94900109D01*
X144367182Y-95025050D01*
X144375946Y-95029516D01*
X144426742Y-95077491D01*
X144443536Y-95145312D01*
X144420998Y-95211447D01*
X144375946Y-95250484D01*
X144367182Y-95254949D01*
X144195213Y-95379890D01*
X144044890Y-95530213D01*
X143919951Y-95702179D01*
X143823444Y-95891585D01*
X143757753Y-96093760D01*
X143724500Y-96303713D01*
X143724500Y-96516287D01*
X143757754Y-96726243D01*
X143811450Y-96891503D01*
X143823444Y-96928414D01*
X143919951Y-97117820D01*
X144044890Y-97289786D01*
X144195213Y-97440109D01*
X144367182Y-97565050D01*
X144375946Y-97569516D01*
X144426742Y-97617491D01*
X144443536Y-97685312D01*
X144420998Y-97751447D01*
X144375946Y-97790484D01*
X144367182Y-97794949D01*
X144195213Y-97919890D01*
X144044890Y-98070213D01*
X143919951Y-98242179D01*
X143823444Y-98431585D01*
X143757753Y-98633760D01*
X143724500Y-98843713D01*
X143724500Y-99056286D01*
X143757753Y-99266239D01*
X143823444Y-99468414D01*
X143919951Y-99657820D01*
X144044890Y-99829786D01*
X144195213Y-99980109D01*
X144367182Y-100105050D01*
X144375946Y-100109516D01*
X144426742Y-100157491D01*
X144443536Y-100225312D01*
X144420998Y-100291447D01*
X144375946Y-100330484D01*
X144367182Y-100334949D01*
X144195213Y-100459890D01*
X144044890Y-100610213D01*
X143919951Y-100782179D01*
X143823444Y-100971585D01*
X143757753Y-101173760D01*
X143724500Y-101383713D01*
X143724500Y-101596286D01*
X143757753Y-101806239D01*
X143823444Y-102008414D01*
X143919951Y-102197820D01*
X144044890Y-102369786D01*
X144195213Y-102520109D01*
X144367179Y-102645048D01*
X144367181Y-102645049D01*
X144367184Y-102645051D01*
X144556588Y-102741557D01*
X144758757Y-102807246D01*
X144968713Y-102840500D01*
X144968714Y-102840500D01*
X145181286Y-102840500D01*
X145181287Y-102840500D01*
X145391243Y-102807246D01*
X145593412Y-102741557D01*
X145782816Y-102645051D01*
X145884456Y-102571206D01*
X145954786Y-102520109D01*
X145954788Y-102520106D01*
X145954792Y-102520104D01*
X146105104Y-102369792D01*
X146105106Y-102369788D01*
X146105109Y-102369786D01*
X146230048Y-102197820D01*
X146230047Y-102197820D01*
X146230051Y-102197816D01*
X146326557Y-102008412D01*
X146392246Y-101806243D01*
X146425500Y-101596287D01*
X146425500Y-101383713D01*
X146392246Y-101173757D01*
X146326557Y-100971588D01*
X146230051Y-100782184D01*
X146230049Y-100782181D01*
X146230048Y-100782179D01*
X146105109Y-100610213D01*
X145954786Y-100459890D01*
X145782820Y-100334951D01*
X145782115Y-100334591D01*
X145774054Y-100330485D01*
X145723259Y-100282512D01*
X145706463Y-100214692D01*
X145728999Y-100148556D01*
X145774054Y-100109515D01*
X145782816Y-100105051D01*
X145804789Y-100089086D01*
X145954786Y-99980109D01*
X145954788Y-99980106D01*
X145954792Y-99980104D01*
X146105104Y-99829792D01*
X146105106Y-99829788D01*
X146105109Y-99829786D01*
X146230048Y-99657820D01*
X146230047Y-99657820D01*
X146230051Y-99657816D01*
X146326557Y-99468412D01*
X146392246Y-99266243D01*
X146425500Y-99056287D01*
X146425500Y-98843713D01*
X146392246Y-98633757D01*
X146326557Y-98431588D01*
X146230051Y-98242184D01*
X146230049Y-98242181D01*
X146230048Y-98242179D01*
X146105109Y-98070213D01*
X145954786Y-97919890D01*
X145782820Y-97794951D01*
X145782115Y-97794591D01*
X145774054Y-97790485D01*
X145723259Y-97742512D01*
X145706463Y-97674692D01*
X145728999Y-97608556D01*
X145774054Y-97569515D01*
X145782816Y-97565051D01*
X145804789Y-97549086D01*
X145954786Y-97440109D01*
X145954788Y-97440106D01*
X145954792Y-97440104D01*
X146105104Y-97289792D01*
X146105106Y-97289788D01*
X146105109Y-97289786D01*
X146230048Y-97117820D01*
X146230047Y-97117820D01*
X146230051Y-97117816D01*
X146326557Y-96928412D01*
X146392246Y-96726243D01*
X146425500Y-96516287D01*
X146425500Y-96303713D01*
X146392246Y-96093757D01*
X146326557Y-95891588D01*
X146230051Y-95702184D01*
X146230049Y-95702181D01*
X146230048Y-95702179D01*
X146105109Y-95530213D01*
X145954786Y-95379890D01*
X145782820Y-95254951D01*
X145782115Y-95254591D01*
X145774054Y-95250485D01*
X145723259Y-95202512D01*
X145706463Y-95134692D01*
X145728999Y-95068556D01*
X145774054Y-95029515D01*
X145782816Y-95025051D01*
X145804789Y-95009086D01*
X145954786Y-94900109D01*
X145954788Y-94900106D01*
X145954792Y-94900104D01*
X146105104Y-94749792D01*
X146105106Y-94749788D01*
X146105109Y-94749786D01*
X146230048Y-94577820D01*
X146230047Y-94577820D01*
X146230051Y-94577816D01*
X146326557Y-94388412D01*
X146392246Y-94186243D01*
X146425500Y-93976287D01*
X146425500Y-93763713D01*
X146392246Y-93553757D01*
X146326557Y-93351588D01*
X146230051Y-93162184D01*
X146230049Y-93162181D01*
X146230048Y-93162179D01*
X146105109Y-92990213D01*
X145954786Y-92839890D01*
X145782820Y-92714951D01*
X145782115Y-92714591D01*
X145774054Y-92710485D01*
X145723259Y-92662512D01*
X145706463Y-92594692D01*
X145728999Y-92528556D01*
X145774054Y-92489515D01*
X145782816Y-92485051D01*
X145804789Y-92469086D01*
X145954786Y-92360109D01*
X145954788Y-92360106D01*
X145954792Y-92360104D01*
X146105104Y-92209792D01*
X146105106Y-92209788D01*
X146105109Y-92209786D01*
X146230048Y-92037820D01*
X146230047Y-92037820D01*
X146230051Y-92037816D01*
X146326557Y-91848412D01*
X146392246Y-91646243D01*
X146425500Y-91436287D01*
X146425500Y-91223713D01*
X146392246Y-91013757D01*
X146326557Y-90811588D01*
X146230051Y-90622184D01*
X146230049Y-90622181D01*
X146230048Y-90622179D01*
X146105109Y-90450213D01*
X145991569Y-90336673D01*
X145958084Y-90275350D01*
X145963068Y-90205658D01*
X146004940Y-90149725D01*
X146035915Y-90132810D01*
X146167331Y-90083796D01*
X146282546Y-89997546D01*
X146368796Y-89882331D01*
X146419091Y-89747483D01*
X146425500Y-89687873D01*
X146425499Y-87892128D01*
X146419091Y-87832517D01*
X146401060Y-87784174D01*
X146368797Y-87697671D01*
X146368793Y-87697664D01*
X146282547Y-87582455D01*
X146282544Y-87582452D01*
X146167335Y-87496206D01*
X146167328Y-87496202D01*
X146032482Y-87445908D01*
X146032483Y-87445908D01*
X145972883Y-87439501D01*
X145972881Y-87439500D01*
X145972873Y-87439500D01*
X145972864Y-87439500D01*
X144177129Y-87439500D01*
X144177123Y-87439501D01*
X144117516Y-87445908D01*
X143982671Y-87496202D01*
X143982664Y-87496206D01*
X143867455Y-87582452D01*
X143867452Y-87582455D01*
X143781206Y-87697664D01*
X143781202Y-87697671D01*
X143730908Y-87832517D01*
X143729029Y-87849999D01*
X143724501Y-87892123D01*
X143724500Y-87892135D01*
X139290500Y-87892135D01*
X139290500Y-87743713D01*
X139257246Y-87533757D01*
X139191557Y-87331588D01*
X139095051Y-87142184D01*
X139095049Y-87142181D01*
X139095048Y-87142179D01*
X138970109Y-86970213D01*
X138819786Y-86819890D01*
X138647820Y-86694951D01*
X138458414Y-86598444D01*
X138458413Y-86598443D01*
X138458412Y-86598443D01*
X138256243Y-86532754D01*
X138256241Y-86532753D01*
X138256240Y-86532753D01*
X138094957Y-86507208D01*
X138046287Y-86499500D01*
X137833713Y-86499500D01*
X137785042Y-86507208D01*
X137623760Y-86532753D01*
X137421585Y-86598444D01*
X137232179Y-86694951D01*
X137060213Y-86819890D01*
X136909890Y-86970213D01*
X136784949Y-87142182D01*
X136780202Y-87151499D01*
X136732227Y-87202293D01*
X136664405Y-87219087D01*
X136598271Y-87196548D01*
X136559234Y-87151495D01*
X136554626Y-87142452D01*
X136515270Y-87088282D01*
X136515269Y-87088282D01*
X135882962Y-87720590D01*
X135865925Y-87657007D01*
X135800099Y-87542993D01*
X135707007Y-87449901D01*
X135592993Y-87384075D01*
X135529409Y-87367037D01*
X136161716Y-86734728D01*
X136107550Y-86695375D01*
X135918217Y-86598904D01*
X135716129Y-86533242D01*
X135506246Y-86500000D01*
X135293754Y-86500000D01*
X135083872Y-86533242D01*
X135083869Y-86533242D01*
X134881782Y-86598904D01*
X134692439Y-86695380D01*
X134638282Y-86734727D01*
X134638282Y-86734728D01*
X135270591Y-87367037D01*
X135207007Y-87384075D01*
X135092993Y-87449901D01*
X134999901Y-87542993D01*
X134934075Y-87657007D01*
X134917037Y-87720591D01*
X134246818Y-87050372D01*
X134213333Y-86989049D01*
X134213330Y-86989036D01*
X134210499Y-86976015D01*
X134210499Y-86952128D01*
X134204091Y-86892517D01*
X134175926Y-86817002D01*
X134153798Y-86757673D01*
X134153793Y-86757664D01*
X134067547Y-86642455D01*
X134067544Y-86642452D01*
X133952335Y-86556206D01*
X133952328Y-86556202D01*
X133817482Y-86505908D01*
X133817483Y-86505908D01*
X133757883Y-86499501D01*
X133757881Y-86499500D01*
X133757873Y-86499500D01*
X133757864Y-86499500D01*
X131962129Y-86499500D01*
X131962123Y-86499501D01*
X131902516Y-86505908D01*
X131767671Y-86556202D01*
X131767664Y-86556206D01*
X131652455Y-86642452D01*
X131652452Y-86642455D01*
X131566206Y-86757664D01*
X131566202Y-86757671D01*
X131515908Y-86892517D01*
X131509501Y-86952116D01*
X131509500Y-86952135D01*
X121000000Y-86952135D01*
X121000000Y-82871907D01*
X121372500Y-82871907D01*
X121372500Y-83128092D01*
X121402960Y-83320404D01*
X121412574Y-83381107D01*
X121491736Y-83624743D01*
X121608037Y-83852996D01*
X121758612Y-84060245D01*
X121939755Y-84241388D01*
X122147004Y-84391963D01*
X122375257Y-84508264D01*
X122618893Y-84587426D01*
X122749249Y-84608072D01*
X122871908Y-84627500D01*
X122871913Y-84627500D01*
X123128092Y-84627500D01*
X123239908Y-84609789D01*
X123381107Y-84587426D01*
X123624743Y-84508264D01*
X123852996Y-84391963D01*
X124060245Y-84241388D01*
X124241388Y-84060245D01*
X124391963Y-83852996D01*
X124508264Y-83624743D01*
X124587426Y-83381107D01*
X124609789Y-83239908D01*
X124627500Y-83128092D01*
X124627500Y-82871907D01*
X145372500Y-82871907D01*
X145372500Y-83128092D01*
X145402960Y-83320404D01*
X145412574Y-83381107D01*
X145491736Y-83624743D01*
X145608037Y-83852996D01*
X145758612Y-84060245D01*
X145939755Y-84241388D01*
X146147004Y-84391963D01*
X146375257Y-84508264D01*
X146618893Y-84587426D01*
X146749249Y-84608072D01*
X146871908Y-84627500D01*
X146871913Y-84627500D01*
X147128092Y-84627500D01*
X147239908Y-84609789D01*
X147381107Y-84587426D01*
X147624743Y-84508264D01*
X147852996Y-84391963D01*
X148060245Y-84241388D01*
X148241388Y-84060245D01*
X148391963Y-83852996D01*
X148508264Y-83624743D01*
X148587426Y-83381107D01*
X148609789Y-83239908D01*
X148627500Y-83128092D01*
X148627500Y-82871907D01*
X148597040Y-82679596D01*
X148587426Y-82618893D01*
X148508264Y-82375257D01*
X148391963Y-82147004D01*
X148241388Y-81939755D01*
X148060245Y-81758612D01*
X147852996Y-81608037D01*
X147624743Y-81491736D01*
X147381107Y-81412574D01*
X147128092Y-81372500D01*
X147128087Y-81372500D01*
X146871913Y-81372500D01*
X146871908Y-81372500D01*
X146618892Y-81412574D01*
X146375254Y-81491737D01*
X146147003Y-81608037D01*
X145939752Y-81758614D01*
X145758614Y-81939752D01*
X145608037Y-82147003D01*
X145491737Y-82375254D01*
X145412574Y-82618892D01*
X145372500Y-82871907D01*
X124627500Y-82871907D01*
X124597040Y-82679596D01*
X124587426Y-82618893D01*
X124508264Y-82375257D01*
X124391963Y-82147004D01*
X124241388Y-81939755D01*
X124060245Y-81758612D01*
X123852996Y-81608037D01*
X123624743Y-81491736D01*
X123381107Y-81412574D01*
X123128092Y-81372500D01*
X123128087Y-81372500D01*
X122871913Y-81372500D01*
X122871908Y-81372500D01*
X122618892Y-81412574D01*
X122375254Y-81491737D01*
X122147003Y-81608037D01*
X121939752Y-81758614D01*
X121758614Y-81939752D01*
X121608037Y-82147003D01*
X121491737Y-82375254D01*
X121412574Y-82618892D01*
X121372500Y-82871907D01*
X121000000Y-82871907D01*
X121000000Y-81098352D01*
X121019685Y-81031313D01*
X121072489Y-80985558D01*
X121124000Y-80974352D01*
X148876000Y-80974352D01*
X148943039Y-80994037D01*
G37*
%TD.AperFunction*%
%TD*%
M02*
