M48
; DRILL file {KiCad 9.0.5} date 2025-11-13T00:09:11-0500
; FORMAT={-:-/ absolute / metric / decimal}
; #@! TF.CreationDate,2025-11-13T00:09:11-05:00
; #@! TF.GenerationSoftware,Kicad,Pcbnew,9.0.5
; #@! TF.FileFunction,Plated,1,2,PTH
FMAT,2
METRIC
; #@! TA.AperFunction,Plated,PTH,ViaDrill
T1C0.300
; #@! TA.AperFunction,Plated,PTH,ComponentDrill
T2C0.950
; #@! TA.AperFunction,Plated,PTH,ComponentDrill
T3C1.000
%
G90
G05
T1
X124.65Y-92.575
X129.0Y-111.7
X130.025Y-105.737
X130.5Y-111.7
X131.775Y-116.95
X131.975Y-105.925
X132.0Y-111.7
X133.5Y-111.7
X134.025Y-105.825
X135.5Y-97.125
X136.725Y-104.55
X136.725Y-118.4
X138.6Y-92.25
X139.1Y-120.775
X139.8Y-90.625
X142.175Y-93.95
X145.875Y-125.025
T2
X130.475Y-129.1
X132.975Y-129.1
X135.475Y-129.1
X137.975Y-129.1
X140.475Y-129.1
T3
X125.375Y-103.865
X125.375Y-106.405
X125.375Y-108.945
X125.375Y-111.485
X126.695Y-119.375
X129.235Y-119.375
X131.775Y-119.375
X132.86Y-87.85
X135.4Y-87.85
X137.94Y-87.85
X145.075Y-88.79
X145.075Y-91.33
X145.075Y-93.87
X145.075Y-96.41
X145.075Y-98.95
X145.075Y-101.49
M30
